frame:0    pts:0       pts_time:0
lavfi.signalstats.YMIN=9
lavfi.signalstats.YLOW=16
lavfi.signalstats.YAVG=21.8553
lavfi.signalstats.YHIGH=30
lavfi.signalstats.YMAX=238
lavfi.signalstats.UMIN=62
lavfi.signalstats.ULOW=127
lavfi.signalstats.UAVG=128.261
lavfi.signalstats.UHIGH=129
lavfi.signalstats.UMAX=168
lavfi.signalstats.VMIN=46
lavfi.signalstats.VLOW=128
lavfi.signalstats.VAVG=130.598
lavfi.signalstats.VHIGH=134
lavfi.signalstats.VMAX=226
lavfi.signalstats.SATMIN=0
lavfi.signalstats.SATLOW=0
lavfi.signalstats.SATAVG=3.21094
lavfi.signalstats.SATHIGH=6
lavfi.signalstats.SATMAX=98
lavfi.signalstats.HUEMED=180
lavfi.signalstats.HUEAVG=192.125
lavfi.signalstats.YDIF=0
lavfi.signalstats.UDIF=0
lavfi.signalstats.VDIF=0
lavfi.signalstats.YBITDEPTH=8
lavfi.signalstats.UBITDEPTH=8
lavfi.signalstats.VBITDEPTH=8
frame:1    pts:100     pts_time:0.0166667
lavfi.signalstats.YMIN=9
lavfi.signalstats.YLOW=16
lavfi.signalstats.YAVG=21.859
lavfi.signalstats.YHIGH=30
lavfi.signalstats.YMAX=239
lavfi.signalstats.UMIN=63
lavfi.signalstats.ULOW=127
lavfi.signalstats.UAVG=128.266
lavfi.signalstats.UHIGH=129
lavfi.signalstats.UMAX=168
lavfi.signalstats.VMIN=47
lavfi.signalstats.VLOW=128
lavfi.signalstats.VAVG=130.606
lavfi.signalstats.VHIGH=134
lavfi.signalstats.VMAX=226
lavfi.signalstats.SATMIN=0
lavfi.signalstats.SATLOW=0
lavfi.signalstats.SATAVG=3.21479
lavfi.signalstats.SATHIGH=6
lavfi.signalstats.SATMAX=98
lavfi.signalstats.HUEMED=180
lavfi.signalstats.HUEAVG=192.342
lavfi.signalstats.YDIF=0.0338232
lavfi.signalstats.UDIF=0.0250677
lavfi.signalstats.VDIF=0.038406
lavfi.signalstats.YBITDEPTH=8
lavfi.signalstats.UBITDEPTH=8
lavfi.signalstats.VBITDEPTH=8
frame:2    pts:1600    pts_time:0.266667
lavfi.signalstats.YMIN=9
lavfi.signalstats.YLOW=16
lavfi.signalstats.YAVG=21.8541
lavfi.signalstats.YHIGH=30
lavfi.signalstats.YMAX=239
lavfi.signalstats.UMIN=63
lavfi.signalstats.ULOW=127
lavfi.signalstats.UAVG=128.264
lavfi.signalstats.UHIGH=129
lavfi.signalstats.UMAX=168
lavfi.signalstats.VMIN=47
lavfi.signalstats.VLOW=128
lavfi.signalstats.VAVG=130.597
lavfi.signalstats.VHIGH=134
lavfi.signalstats.VMAX=226
lavfi.signalstats.SATMIN=0
lavfi.signalstats.SATLOW=0
lavfi.signalstats.SATAVG=3.20752
lavfi.signalstats.SATHIGH=6
lavfi.signalstats.SATMAX=98
lavfi.signalstats.HUEMED=180
lavfi.signalstats.HUEAVG=192.38
lavfi.signalstats.YDIF=0.0123877
lavfi.signalstats.UDIF=0.0153978
lavfi.signalstats.VDIF=0.022134
lavfi.signalstats.YBITDEPTH=8
lavfi.signalstats.UBITDEPTH=8
lavfi.signalstats.VBITDEPTH=8
frame:3    pts:2000    pts_time:0.333333
lavfi.signalstats.YMIN=9
lavfi.signalstats.YLOW=16
lavfi.signalstats.YAVG=21.8564
lavfi.signalstats.YHIGH=30
lavfi.signalstats.YMAX=239
lavfi.signalstats.UMIN=63
lavfi.signalstats.ULOW=127
lavfi.signalstats.UAVG=128.265
lavfi.signalstats.UHIGH=129
lavfi.signalstats.UMAX=168
lavfi.signalstats.VMIN=47
lavfi.signalstats.VLOW=128
lavfi.signalstats.VAVG=130.598
lavfi.signalstats.VHIGH=134
lavfi.signalstats.VMAX=226
lavfi.signalstats.SATMIN=0
lavfi.signalstats.SATLOW=0
lavfi.signalstats.SATAVG=3.208
lavfi.signalstats.SATHIGH=6
lavfi.signalstats.SATMAX=98
lavfi.signalstats.HUEMED=180
lavfi.signalstats.HUEAVG=192.433
lavfi.signalstats.YDIF=0.0115765
lavfi.signalstats.UDIF=0.00688102
lavfi.signalstats.VDIF=0.00704191
lavfi.signalstats.YBITDEPTH=8
lavfi.signalstats.UBITDEPTH=8
lavfi.signalstats.VBITDEPTH=8
frame:4    pts:2100    pts_time:0.35
lavfi.signalstats.YMIN=9
lavfi.signalstats.YLOW=16
lavfi.signalstats.YAVG=21.8518
lavfi.signalstats.YHIGH=30
lavfi.signalstats.YMAX=239
lavfi.signalstats.UMIN=63
lavfi.signalstats.ULOW=127
lavfi.signalstats.UAVG=128.263
lavfi.signalstats.UHIGH=129
lavfi.signalstats.UMAX=168
lavfi.signalstats.VMIN=47
lavfi.signalstats.VLOW=128
lavfi.signalstats.VAVG=130.598
lavfi.signalstats.VHIGH=134
lavfi.signalstats.VMAX=226
lavfi.signalstats.SATMIN=0
lavfi.signalstats.SATLOW=0
lavfi.signalstats.SATAVG=3.20822
lavfi.signalstats.SATHIGH=6
lavfi.signalstats.SATMAX=98
lavfi.signalstats.HUEMED=180
lavfi.signalstats.HUEAVG=192.362
lavfi.signalstats.YDIF=0.007058
lavfi.signalstats.UDIF=0.00641442
lavfi.signalstats.VDIF=0.00531496
lavfi.signalstats.YBITDEPTH=8
lavfi.signalstats.UBITDEPTH=8
lavfi.signalstats.VBITDEPTH=8
frame:5    pts:2200    pts_time:0.366667
lavfi.signalstats.YMIN=9
lavfi.signalstats.YLOW=16
lavfi.signalstats.YAVG=21.855
lavfi.signalstats.YHIGH=30
lavfi.signalstats.YMAX=239
lavfi.signalstats.UMIN=63
lavfi.signalstats.ULOW=127
lavfi.signalstats.UAVG=128.264
lavfi.signalstats.UHIGH=129
lavfi.signalstats.UMAX=168
lavfi.signalstats.VMIN=47
lavfi.signalstats.VLOW=128
lavfi.signalstats.VAVG=130.597
lavfi.signalstats.VHIGH=134
lavfi.signalstats.VMAX=226
lavfi.signalstats.SATMIN=0
lavfi.signalstats.SATLOW=0
lavfi.signalstats.SATAVG=3.20677
lavfi.signalstats.SATHIGH=6
lavfi.signalstats.SATMAX=98
lavfi.signalstats.HUEMED=180
lavfi.signalstats.HUEAVG=192.381
lavfi.signalstats.YDIF=0.00539272
lavfi.signalstats.UDIF=0.00447293
lavfi.signalstats.VDIF=0.00505752
lavfi.signalstats.YBITDEPTH=8
lavfi.signalstats.UBITDEPTH=8
lavfi.signalstats.VBITDEPTH=8
frame:6    pts:2300    pts_time:0.383333
lavfi.signalstats.YMIN=9
lavfi.signalstats.YLOW=16
lavfi.signalstats.YAVG=21.8533
lavfi.signalstats.YHIGH=30
lavfi.signalstats.YMAX=239
lavfi.signalstats.UMIN=63
lavfi.signalstats.ULOW=127
lavfi.signalstats.UAVG=128.263
lavfi.signalstats.UHIGH=129
lavfi.signalstats.UMAX=168
lavfi.signalstats.VMIN=47
lavfi.signalstats.VLOW=128
lavfi.signalstats.VAVG=130.597
lavfi.signalstats.VHIGH=134
lavfi.signalstats.VMAX=226
lavfi.signalstats.SATMIN=0
lavfi.signalstats.SATLOW=0
lavfi.signalstats.SATAVG=3.20788
lavfi.signalstats.SATHIGH=6
lavfi.signalstats.SATMAX=98
lavfi.signalstats.HUEMED=180
lavfi.signalstats.HUEAVG=192.374
lavfi.signalstats.YDIF=0.0034204
lavfi.signalstats.UDIF=0.00462846
lavfi.signalstats.VDIF=0.0053954
lavfi.signalstats.YBITDEPTH=8
lavfi.signalstats.UBITDEPTH=8
lavfi.signalstats.VBITDEPTH=8
frame:7    pts:2400    pts_time:0.4
lavfi.signalstats.YMIN=9
lavfi.signalstats.YLOW=16
lavfi.signalstats.YAVG=21.8545
lavfi.signalstats.YHIGH=30
lavfi.signalstats.YMAX=239
lavfi.signalstats.UMIN=63
lavfi.signalstats.ULOW=127
lavfi.signalstats.UAVG=128.263
lavfi.signalstats.UHIGH=129
lavfi.signalstats.UMAX=168
lavfi.signalstats.VMIN=47
lavfi.signalstats.VLOW=128
lavfi.signalstats.VAVG=130.596
lavfi.signalstats.VHIGH=134
lavfi.signalstats.VMAX=226
lavfi.signalstats.SATMIN=0
lavfi.signalstats.SATLOW=0
lavfi.signalstats.SATAVG=3.20618
lavfi.signalstats.SATHIGH=6
lavfi.signalstats.SATMAX=98
lavfi.signalstats.HUEMED=180
lavfi.signalstats.HUEAVG=192.381
lavfi.signalstats.YDIF=0.00288005
lavfi.signalstats.UDIF=0.00433885
lavfi.signalstats.VDIF=0.00440321
lavfi.signalstats.YBITDEPTH=8
lavfi.signalstats.UBITDEPTH=8
lavfi.signalstats.VBITDEPTH=8
frame:8    pts:2500    pts_time:0.416667
lavfi.signalstats.YMIN=9
lavfi.signalstats.YLOW=16
lavfi.signalstats.YAVG=21.8533
lavfi.signalstats.YHIGH=30
lavfi.signalstats.YMAX=239
lavfi.signalstats.UMIN=63
lavfi.signalstats.ULOW=127
lavfi.signalstats.UAVG=128.263
lavfi.signalstats.UHIGH=129
lavfi.signalstats.UMAX=168
lavfi.signalstats.VMIN=47
lavfi.signalstats.VLOW=128
lavfi.signalstats.VAVG=130.597
lavfi.signalstats.VHIGH=134
lavfi.signalstats.VMAX=226
lavfi.signalstats.SATMIN=0
lavfi.signalstats.SATLOW=0
lavfi.signalstats.SATAVG=3.20781
lavfi.signalstats.SATHIGH=6
lavfi.signalstats.SATMAX=98
lavfi.signalstats.HUEMED=180
lavfi.signalstats.HUEAVG=192.37
lavfi.signalstats.YDIF=0.00276742
lavfi.signalstats.UDIF=0.00442466
lavfi.signalstats.VDIF=0.00436566
lavfi.signalstats.YBITDEPTH=8
lavfi.signalstats.UBITDEPTH=8
lavfi.signalstats.VBITDEPTH=8
frame:9    pts:2600    pts_time:0.433333
lavfi.signalstats.YMIN=9
lavfi.signalstats.YLOW=16
lavfi.signalstats.YAVG=21.8546
lavfi.signalstats.YHIGH=30
lavfi.signalstats.YMAX=239
lavfi.signalstats.UMIN=63
lavfi.signalstats.ULOW=127
lavfi.signalstats.UAVG=128.263
lavfi.signalstats.UHIGH=129
lavfi.signalstats.UMAX=168
lavfi.signalstats.VMIN=47
lavfi.signalstats.VLOW=128
lavfi.signalstats.VAVG=130.596
lavfi.signalstats.VHIGH=134
lavfi.signalstats.VMAX=226
lavfi.signalstats.SATMIN=0
lavfi.signalstats.SATLOW=0
lavfi.signalstats.SATAVG=3.2061
lavfi.signalstats.SATHIGH=6
lavfi.signalstats.SATMAX=98
lavfi.signalstats.HUEMED=180
lavfi.signalstats.HUEAVG=192.376
lavfi.signalstats.YDIF=0.00287469
lavfi.signalstats.UDIF=0.00433885
lavfi.signalstats.VDIF=0.00439248
lavfi.signalstats.YBITDEPTH=8
lavfi.signalstats.UBITDEPTH=8
lavfi.signalstats.VBITDEPTH=8
frame:10   pts:2700    pts_time:0.45
lavfi.signalstats.YMIN=9
lavfi.signalstats.YLOW=16
lavfi.signalstats.YAVG=21.8533
lavfi.signalstats.YHIGH=30
lavfi.signalstats.YMAX=239
lavfi.signalstats.UMIN=63
lavfi.signalstats.ULOW=127
lavfi.signalstats.UAVG=128.263
lavfi.signalstats.UHIGH=129
lavfi.signalstats.UMAX=168
lavfi.signalstats.VMIN=47
lavfi.signalstats.VLOW=128
lavfi.signalstats.VAVG=130.597
lavfi.signalstats.VHIGH=134
lavfi.signalstats.VMAX=226
lavfi.signalstats.SATMIN=0
lavfi.signalstats.SATLOW=0
lavfi.signalstats.SATAVG=3.20773
lavfi.signalstats.SATHIGH=6
lavfi.signalstats.SATMAX=98
lavfi.signalstats.HUEMED=180
lavfi.signalstats.HUEAVG=192.366
lavfi.signalstats.YDIF=0.00276742
lavfi.signalstats.UDIF=0.00433885
lavfi.signalstats.VDIF=0.00436566
lavfi.signalstats.YBITDEPTH=8
lavfi.signalstats.UBITDEPTH=8
lavfi.signalstats.VBITDEPTH=8
frame:11   pts:2800    pts_time:0.466667
lavfi.signalstats.YMIN=9
lavfi.signalstats.YLOW=16
lavfi.signalstats.YAVG=21.8546
lavfi.signalstats.YHIGH=30
lavfi.signalstats.YMAX=239
lavfi.signalstats.UMIN=63
lavfi.signalstats.ULOW=127
lavfi.signalstats.UAVG=128.263
lavfi.signalstats.UHIGH=129
lavfi.signalstats.UMAX=168
lavfi.signalstats.VMIN=47
lavfi.signalstats.VLOW=128
lavfi.signalstats.VAVG=130.596
lavfi.signalstats.VHIGH=134
lavfi.signalstats.VMAX=226
lavfi.signalstats.SATMIN=0
lavfi.signalstats.SATLOW=0
lavfi.signalstats.SATAVG=3.20611
lavfi.signalstats.SATHIGH=6
lavfi.signalstats.SATMAX=98
lavfi.signalstats.HUEMED=180
lavfi.signalstats.HUEAVG=192.372
lavfi.signalstats.YDIF=0.00287469
lavfi.signalstats.UDIF=0.00433885
lavfi.signalstats.VDIF=0.00443539
lavfi.signalstats.YBITDEPTH=8
lavfi.signalstats.UBITDEPTH=8
lavfi.signalstats.VBITDEPTH=8
frame:12   pts:2900    pts_time:0.483333
lavfi.signalstats.YMIN=9
lavfi.signalstats.YLOW=16
lavfi.signalstats.YAVG=21.8533
lavfi.signalstats.YHIGH=30
lavfi.signalstats.YMAX=239
lavfi.signalstats.UMIN=63
lavfi.signalstats.ULOW=127
lavfi.signalstats.UAVG=128.263
lavfi.signalstats.UHIGH=129
lavfi.signalstats.UMAX=168
lavfi.signalstats.VMIN=47
lavfi.signalstats.VLOW=128
lavfi.signalstats.VAVG=130.597
lavfi.signalstats.VHIGH=134
lavfi.signalstats.VMAX=226
lavfi.signalstats.SATMIN=0
lavfi.signalstats.SATLOW=0
lavfi.signalstats.SATAVG=3.20774
lavfi.signalstats.SATHIGH=6
lavfi.signalstats.SATMAX=98
lavfi.signalstats.HUEMED=180
lavfi.signalstats.HUEAVG=192.362
lavfi.signalstats.YDIF=0.00276742
lavfi.signalstats.UDIF=0.00433885
lavfi.signalstats.VDIF=0.00435494
lavfi.signalstats.YBITDEPTH=8
lavfi.signalstats.UBITDEPTH=8
lavfi.signalstats.VBITDEPTH=8
frame:13   pts:3000    pts_time:0.5
lavfi.signalstats.YMIN=9
lavfi.signalstats.YLOW=16
lavfi.signalstats.YAVG=21.8546
lavfi.signalstats.YHIGH=30
lavfi.signalstats.YMAX=239
lavfi.signalstats.UMIN=63
lavfi.signalstats.ULOW=127
lavfi.signalstats.UAVG=128.263
lavfi.signalstats.UHIGH=129
lavfi.signalstats.UMAX=168
lavfi.signalstats.VMIN=47
lavfi.signalstats.VLOW=128
lavfi.signalstats.VAVG=130.596
lavfi.signalstats.VHIGH=134
lavfi.signalstats.VMAX=226
lavfi.signalstats.SATMIN=0
lavfi.signalstats.SATLOW=0
lavfi.signalstats.SATAVG=3.20621
lavfi.signalstats.SATHIGH=6
lavfi.signalstats.SATMAX=98
lavfi.signalstats.HUEMED=180
lavfi.signalstats.HUEAVG=192.368
lavfi.signalstats.YDIF=0.00287469
lavfi.signalstats.UDIF=0.00433885
lavfi.signalstats.VDIF=0.00443539
lavfi.signalstats.YBITDEPTH=8
lavfi.signalstats.UBITDEPTH=8
lavfi.signalstats.VBITDEPTH=8
frame:14   pts:3100    pts_time:0.516667
lavfi.signalstats.YMIN=9
lavfi.signalstats.YLOW=16
lavfi.signalstats.YAVG=21.8533
lavfi.signalstats.YHIGH=30
lavfi.signalstats.YMAX=239
lavfi.signalstats.UMIN=63
lavfi.signalstats.ULOW=127
lavfi.signalstats.UAVG=128.263
lavfi.signalstats.UHIGH=129
lavfi.signalstats.UMAX=168
lavfi.signalstats.VMIN=47
lavfi.signalstats.VLOW=128
lavfi.signalstats.VAVG=130.597
lavfi.signalstats.VHIGH=134
lavfi.signalstats.VMAX=226
lavfi.signalstats.SATMIN=0
lavfi.signalstats.SATLOW=0
lavfi.signalstats.SATAVG=3.20783
lavfi.signalstats.SATHIGH=6
lavfi.signalstats.SATMAX=98
lavfi.signalstats.HUEMED=180
lavfi.signalstats.HUEAVG=192.358
lavfi.signalstats.YDIF=0.00276742
lavfi.signalstats.UDIF=0.00433885
lavfi.signalstats.VDIF=0.00435494
lavfi.signalstats.YBITDEPTH=8
lavfi.signalstats.UBITDEPTH=8
lavfi.signalstats.VBITDEPTH=8
frame:15   pts:3200    pts_time:0.533333
lavfi.signalstats.YMIN=9
lavfi.signalstats.YLOW=16
lavfi.signalstats.YAVG=21.8546
lavfi.signalstats.YHIGH=30
lavfi.signalstats.YMAX=239
lavfi.signalstats.UMIN=63
lavfi.signalstats.ULOW=127
lavfi.signalstats.UAVG=128.263
lavfi.signalstats.UHIGH=129
lavfi.signalstats.UMAX=168
lavfi.signalstats.VMIN=47
lavfi.signalstats.VLOW=128
lavfi.signalstats.VAVG=130.596
lavfi.signalstats.VHIGH=134
lavfi.signalstats.VMAX=226
lavfi.signalstats.SATMIN=0
lavfi.signalstats.SATLOW=0
lavfi.signalstats.SATAVG=3.2063
lavfi.signalstats.SATHIGH=6
lavfi.signalstats.SATMAX=98
lavfi.signalstats.HUEMED=180
lavfi.signalstats.HUEAVG=192.364
lavfi.signalstats.YDIF=0.00287469
lavfi.signalstats.UDIF=0.00433885
lavfi.signalstats.VDIF=0.00443539
lavfi.signalstats.YBITDEPTH=8
lavfi.signalstats.UBITDEPTH=8
lavfi.signalstats.VBITDEPTH=8
frame:16   pts:3300    pts_time:0.55
lavfi.signalstats.YMIN=9
lavfi.signalstats.YLOW=16
lavfi.signalstats.YAVG=21.8534
lavfi.signalstats.YHIGH=30
lavfi.signalstats.YMAX=239
lavfi.signalstats.UMIN=63
lavfi.signalstats.ULOW=127
lavfi.signalstats.UAVG=128.263
lavfi.signalstats.UHIGH=129
lavfi.signalstats.UMAX=168
lavfi.signalstats.VMIN=47
lavfi.signalstats.VLOW=128
lavfi.signalstats.VAVG=130.597
lavfi.signalstats.VHIGH=134
lavfi.signalstats.VMAX=226
lavfi.signalstats.SATMIN=0
lavfi.signalstats.SATLOW=0
lavfi.signalstats.SATAVG=3.20792
lavfi.signalstats.SATHIGH=6
lavfi.signalstats.SATMAX=98
lavfi.signalstats.HUEMED=180
lavfi.signalstats.HUEAVG=192.354
lavfi.signalstats.YDIF=0.00276742
lavfi.signalstats.UDIF=0.00433885
lavfi.signalstats.VDIF=0.00435494
lavfi.signalstats.YBITDEPTH=8
lavfi.signalstats.UBITDEPTH=8
lavfi.signalstats.VBITDEPTH=8
frame:17   pts:3400    pts_time:0.566667
lavfi.signalstats.YMIN=9
lavfi.signalstats.YLOW=16
lavfi.signalstats.YAVG=21.8547
lavfi.signalstats.YHIGH=30
lavfi.signalstats.YMAX=239
lavfi.signalstats.UMIN=63
lavfi.signalstats.ULOW=127
lavfi.signalstats.UAVG=128.263
lavfi.signalstats.UHIGH=129
lavfi.signalstats.UMAX=168
lavfi.signalstats.VMIN=47
lavfi.signalstats.VLOW=128
lavfi.signalstats.VAVG=130.596
lavfi.signalstats.VHIGH=134
lavfi.signalstats.VMAX=226
lavfi.signalstats.SATMIN=0
lavfi.signalstats.SATLOW=0
lavfi.signalstats.SATAVG=3.20639
lavfi.signalstats.SATHIGH=6
lavfi.signalstats.SATMAX=98
lavfi.signalstats.HUEMED=180
lavfi.signalstats.HUEAVG=192.36
lavfi.signalstats.YDIF=0.00287469
lavfi.signalstats.UDIF=0.00433885
lavfi.signalstats.VDIF=0.00443539
lavfi.signalstats.YBITDEPTH=8
lavfi.signalstats.UBITDEPTH=8
lavfi.signalstats.VBITDEPTH=8
frame:18   pts:3500    pts_time:0.583333
lavfi.signalstats.YMIN=9
lavfi.signalstats.YLOW=16
lavfi.signalstats.YAVG=21.8534
lavfi.signalstats.YHIGH=30
lavfi.signalstats.YMAX=239
lavfi.signalstats.UMIN=63
lavfi.signalstats.ULOW=127
lavfi.signalstats.UAVG=128.263
lavfi.signalstats.UHIGH=129
lavfi.signalstats.UMAX=168
lavfi.signalstats.VMIN=47
lavfi.signalstats.VLOW=128
lavfi.signalstats.VAVG=130.597
lavfi.signalstats.VHIGH=134
lavfi.signalstats.VMAX=226
lavfi.signalstats.SATMIN=0
lavfi.signalstats.SATLOW=0
lavfi.signalstats.SATAVG=3.20801
lavfi.signalstats.SATHIGH=6
lavfi.signalstats.SATMAX=98
lavfi.signalstats.HUEMED=180
lavfi.signalstats.HUEAVG=192.35
lavfi.signalstats.YDIF=0.00276742
lavfi.signalstats.UDIF=0.00433885
lavfi.signalstats.VDIF=0.00435494
lavfi.signalstats.YBITDEPTH=8
lavfi.signalstats.UBITDEPTH=8
lavfi.signalstats.VBITDEPTH=8
frame:19   pts:3600    pts_time:0.6
lavfi.signalstats.YMIN=9
lavfi.signalstats.YLOW=16
lavfi.signalstats.YAVG=21.8543
lavfi.signalstats.YHIGH=30
lavfi.signalstats.YMAX=236
lavfi.signalstats.UMIN=63
lavfi.signalstats.ULOW=127
lavfi.signalstats.UAVG=128.262
lavfi.signalstats.UHIGH=129
lavfi.signalstats.UMAX=168
lavfi.signalstats.VMIN=47
lavfi.signalstats.VLOW=128
lavfi.signalstats.VAVG=130.597
lavfi.signalstats.VHIGH=134
lavfi.signalstats.VMAX=226
lavfi.signalstats.SATMIN=0
lavfi.signalstats.SATLOW=0
lavfi.signalstats.SATAVG=3.20765
lavfi.signalstats.SATHIGH=6
lavfi.signalstats.SATMAX=98
lavfi.signalstats.HUEMED=180
lavfi.signalstats.HUEAVG=192.381
lavfi.signalstats.YDIF=0.00936419
lavfi.signalstats.UDIF=0.0117026
lavfi.signalstats.VDIF=0.0125017
lavfi.signalstats.YBITDEPTH=8
lavfi.signalstats.UBITDEPTH=8
lavfi.signalstats.VBITDEPTH=8
frame:20   pts:3700    pts_time:0.616667
lavfi.signalstats.YMIN=5
lavfi.signalstats.YLOW=16
lavfi.signalstats.YAVG=20.7041
lavfi.signalstats.YHIGH=25
lavfi.signalstats.YMAX=236
lavfi.signalstats.UMIN=64
lavfi.signalstats.ULOW=127
lavfi.signalstats.UAVG=127.938
lavfi.signalstats.UHIGH=129
lavfi.signalstats.UMAX=168
lavfi.signalstats.VMIN=49
lavfi.signalstats.VLOW=128
lavfi.signalstats.VAVG=130.893
lavfi.signalstats.VHIGH=134
lavfi.signalstats.VMAX=226
lavfi.signalstats.SATMIN=0
lavfi.signalstats.SATLOW=0
lavfi.signalstats.SATAVG=3.15564
lavfi.signalstats.SATHIGH=6
lavfi.signalstats.SATMAX=98
lavfi.signalstats.HUEMED=180
lavfi.signalstats.HUEAVG=183.804
lavfi.signalstats.YDIF=3.84505
lavfi.signalstats.UDIF=0.686187
lavfi.signalstats.VDIF=1.6771
lavfi.signalstats.YBITDEPTH=8
lavfi.signalstats.UBITDEPTH=8
lavfi.signalstats.VBITDEPTH=8
frame:21   pts:3800    pts_time:0.633333
lavfi.signalstats.YMIN=11
lavfi.signalstats.YLOW=16
lavfi.signalstats.YAVG=21.8541
lavfi.signalstats.YHIGH=30
lavfi.signalstats.YMAX=236
lavfi.signalstats.UMIN=65
lavfi.signalstats.ULOW=127
lavfi.signalstats.UAVG=128.26
lavfi.signalstats.UHIGH=129
lavfi.signalstats.UMAX=168
lavfi.signalstats.VMIN=49
lavfi.signalstats.VLOW=128
lavfi.signalstats.VAVG=130.598
lavfi.signalstats.VHIGH=134
lavfi.signalstats.VMAX=226
lavfi.signalstats.SATMIN=0
lavfi.signalstats.SATLOW=0
lavfi.signalstats.SATAVG=3.2037
lavfi.signalstats.SATHIGH=6
lavfi.signalstats.SATMAX=98
lavfi.signalstats.HUEMED=180
lavfi.signalstats.HUEAVG=191.928
lavfi.signalstats.YDIF=3.83453
lavfi.signalstats.UDIF=0.685742
lavfi.signalstats.VDIF=1.68805
lavfi.signalstats.YBITDEPTH=8
lavfi.signalstats.UBITDEPTH=8
lavfi.signalstats.VBITDEPTH=8
frame:22   pts:3900    pts_time:0.65
lavfi.signalstats.YMIN=11
lavfi.signalstats.YLOW=16
lavfi.signalstats.YAVG=21.855
lavfi.signalstats.YHIGH=30
lavfi.signalstats.YMAX=236
lavfi.signalstats.UMIN=65
lavfi.signalstats.ULOW=127
lavfi.signalstats.UAVG=128.258
lavfi.signalstats.UHIGH=129
lavfi.signalstats.UMAX=168
lavfi.signalstats.VMIN=49
lavfi.signalstats.VLOW=128
lavfi.signalstats.VAVG=130.599
lavfi.signalstats.VHIGH=134
lavfi.signalstats.VMAX=226
lavfi.signalstats.SATMIN=0
lavfi.signalstats.SATLOW=0
lavfi.signalstats.SATAVG=3.20407
lavfi.signalstats.SATHIGH=6
lavfi.signalstats.SATMAX=98
lavfi.signalstats.HUEMED=180
lavfi.signalstats.HUEAVG=191.948
lavfi.signalstats.YDIF=0.0122013
lavfi.signalstats.UDIF=0.0162398
lavfi.signalstats.VDIF=0.0189268
lavfi.signalstats.YBITDEPTH=8
lavfi.signalstats.UBITDEPTH=8
lavfi.signalstats.VBITDEPTH=8
frame:23   pts:4000    pts_time:0.666667
lavfi.signalstats.YMIN=11
lavfi.signalstats.YLOW=16
lavfi.signalstats.YAVG=21.8568
lavfi.signalstats.YHIGH=30
lavfi.signalstats.YMAX=236
lavfi.signalstats.UMIN=65
lavfi.signalstats.ULOW=127
lavfi.signalstats.UAVG=128.259
lavfi.signalstats.UHIGH=129
lavfi.signalstats.UMAX=168
lavfi.signalstats.VMIN=49
lavfi.signalstats.VLOW=128
lavfi.signalstats.VAVG=130.6
lavfi.signalstats.VHIGH=134
lavfi.signalstats.VMAX=226
lavfi.signalstats.SATMIN=0
lavfi.signalstats.SATLOW=0
lavfi.signalstats.SATAVG=3.20419
lavfi.signalstats.SATHIGH=6
lavfi.signalstats.SATMAX=98
lavfi.signalstats.HUEMED=180
lavfi.signalstats.HUEAVG=191.983
lavfi.signalstats.YDIF=0.0197166
lavfi.signalstats.UDIF=0.018369
lavfi.signalstats.VDIF=0.0208683
lavfi.signalstats.YBITDEPTH=8
lavfi.signalstats.UBITDEPTH=8
lavfi.signalstats.VBITDEPTH=8
frame:24   pts:4100    pts_time:0.683333
lavfi.signalstats.YMIN=11
lavfi.signalstats.YLOW=16
lavfi.signalstats.YAVG=21.8528
lavfi.signalstats.YHIGH=30
lavfi.signalstats.YMAX=236
lavfi.signalstats.UMIN=65
lavfi.signalstats.ULOW=127
lavfi.signalstats.UAVG=128.26
lavfi.signalstats.UHIGH=129
lavfi.signalstats.UMAX=168
lavfi.signalstats.VMIN=49
lavfi.signalstats.VLOW=128
lavfi.signalstats.VAVG=130.599
lavfi.signalstats.VHIGH=134
lavfi.signalstats.VMAX=226
lavfi.signalstats.SATMIN=0
lavfi.signalstats.SATLOW=0
lavfi.signalstats.SATAVG=3.20365
lavfi.signalstats.SATHIGH=6
lavfi.signalstats.SATMAX=98
lavfi.signalstats.HUEMED=180
lavfi.signalstats.HUEAVG=191.989
lavfi.signalstats.YDIF=0.00605106
lavfi.signalstats.UDIF=0.0135421
lavfi.signalstats.VDIF=0.014588
lavfi.signalstats.YBITDEPTH=8
lavfi.signalstats.UBITDEPTH=8
lavfi.signalstats.VBITDEPTH=8
frame:25   pts:4200    pts_time:0.7
lavfi.signalstats.YMIN=11
lavfi.signalstats.YLOW=16
lavfi.signalstats.YAVG=21.849
lavfi.signalstats.YHIGH=30
lavfi.signalstats.YMAX=236
lavfi.signalstats.UMIN=65
lavfi.signalstats.ULOW=127
lavfi.signalstats.UAVG=128.258
lavfi.signalstats.UHIGH=129
lavfi.signalstats.UMAX=168
lavfi.signalstats.VMIN=49
lavfi.signalstats.VLOW=128
lavfi.signalstats.VAVG=130.598
lavfi.signalstats.VHIGH=134
lavfi.signalstats.VMAX=226
lavfi.signalstats.SATMIN=0
lavfi.signalstats.SATLOW=0
lavfi.signalstats.SATAVG=3.20269
lavfi.signalstats.SATHIGH=6
lavfi.signalstats.SATMAX=98
lavfi.signalstats.HUEMED=180
lavfi.signalstats.HUEAVG=191.948
lavfi.signalstats.YDIF=0.00985627
lavfi.signalstats.UDIF=0.00969671
lavfi.signalstats.VDIF=0.010823
lavfi.signalstats.YBITDEPTH=8
lavfi.signalstats.UBITDEPTH=8
lavfi.signalstats.VBITDEPTH=8
frame:26   pts:4300    pts_time:0.716667
lavfi.signalstats.YMIN=11
lavfi.signalstats.YLOW=16
lavfi.signalstats.YAVG=21.8489
lavfi.signalstats.YHIGH=30
lavfi.signalstats.YMAX=236
lavfi.signalstats.UMIN=65
lavfi.signalstats.ULOW=127
lavfi.signalstats.UAVG=128.26
lavfi.signalstats.UHIGH=129
lavfi.signalstats.UMAX=168
lavfi.signalstats.VMIN=49
lavfi.signalstats.VLOW=128
lavfi.signalstats.VAVG=130.599
lavfi.signalstats.VHIGH=134
lavfi.signalstats.VMAX=226
lavfi.signalstats.SATMIN=0
lavfi.signalstats.SATLOW=0
lavfi.signalstats.SATAVG=3.20383
lavfi.signalstats.SATHIGH=6
lavfi.signalstats.SATMAX=98
lavfi.signalstats.HUEMED=180
lavfi.signalstats.HUEAVG=191.997
lavfi.signalstats.YDIF=0.00531496
lavfi.signalstats.UDIF=0.00973962
lavfi.signalstats.VDIF=0.0118098
lavfi.signalstats.YBITDEPTH=8
lavfi.signalstats.UBITDEPTH=8
lavfi.signalstats.VBITDEPTH=8
frame:27   pts:4400    pts_time:0.733333
lavfi.signalstats.YMIN=11
lavfi.signalstats.YLOW=16
lavfi.signalstats.YAVG=21.8491
lavfi.signalstats.YHIGH=30
lavfi.signalstats.YMAX=236
lavfi.signalstats.UMIN=65
lavfi.signalstats.ULOW=127
lavfi.signalstats.UAVG=128.258
lavfi.signalstats.UHIGH=129
lavfi.signalstats.UMAX=168
lavfi.signalstats.VMIN=49
lavfi.signalstats.VLOW=128
lavfi.signalstats.VAVG=130.598
lavfi.signalstats.VHIGH=134
lavfi.signalstats.VMAX=226
lavfi.signalstats.SATMIN=0
lavfi.signalstats.SATLOW=0
lavfi.signalstats.SATAVG=3.20331
lavfi.signalstats.SATHIGH=6
lavfi.signalstats.SATMAX=98
lavfi.signalstats.HUEMED=180
lavfi.signalstats.HUEAVG=191.953
lavfi.signalstats.YDIF=0.00539406
lavfi.signalstats.UDIF=0.00960553
lavfi.signalstats.VDIF=0.0105816
lavfi.signalstats.YBITDEPTH=8
lavfi.signalstats.UBITDEPTH=8
lavfi.signalstats.VBITDEPTH=8
frame:28   pts:4500    pts_time:0.75
lavfi.signalstats.YMIN=11
lavfi.signalstats.YLOW=16
lavfi.signalstats.YAVG=21.847
lavfi.signalstats.YHIGH=30
lavfi.signalstats.YMAX=236
lavfi.signalstats.UMIN=65
lavfi.signalstats.ULOW=127
lavfi.signalstats.UAVG=128.26
lavfi.signalstats.UHIGH=129
lavfi.signalstats.UMAX=168
lavfi.signalstats.VMIN=49
lavfi.signalstats.VLOW=128
lavfi.signalstats.VAVG=130.599
lavfi.signalstats.VHIGH=134
lavfi.signalstats.VMAX=226
lavfi.signalstats.SATMIN=0
lavfi.signalstats.SATLOW=0
lavfi.signalstats.SATAVG=3.20364
lavfi.signalstats.SATHIGH=6
lavfi.signalstats.SATMAX=98
lavfi.signalstats.HUEMED=180
lavfi.signalstats.HUEAVG=191.996
lavfi.signalstats.YDIF=0.0036604
lavfi.signalstats.UDIF=0.00953045
lavfi.signalstats.VDIF=0.0106728
lavfi.signalstats.YBITDEPTH=8
lavfi.signalstats.UBITDEPTH=8
lavfi.signalstats.VBITDEPTH=8
frame:29   pts:4600    pts_time:0.766667
lavfi.signalstats.YMIN=11
lavfi.signalstats.YLOW=16
lavfi.signalstats.YAVG=21.849
lavfi.signalstats.YHIGH=30
lavfi.signalstats.YMAX=236
lavfi.signalstats.UMIN=65
lavfi.signalstats.ULOW=127
lavfi.signalstats.UAVG=128.258
lavfi.signalstats.UHIGH=129
lavfi.signalstats.UMAX=168
lavfi.signalstats.VMIN=49
lavfi.signalstats.VLOW=128
lavfi.signalstats.VAVG=130.598
lavfi.signalstats.VHIGH=134
lavfi.signalstats.VMAX=226
lavfi.signalstats.SATMIN=0
lavfi.signalstats.SATLOW=0
lavfi.signalstats.SATAVG=3.20322
lavfi.signalstats.SATHIGH=6
lavfi.signalstats.SATMAX=98
lavfi.signalstats.HUEMED=180
lavfi.signalstats.HUEAVG=191.951
lavfi.signalstats.YDIF=0.00378912
lavfi.signalstats.UDIF=0.00953045
lavfi.signalstats.VDIF=0.0111394
lavfi.signalstats.YBITDEPTH=8
lavfi.signalstats.UBITDEPTH=8
lavfi.signalstats.VBITDEPTH=8
frame:30   pts:4700    pts_time:0.783333
lavfi.signalstats.YMIN=11
lavfi.signalstats.YLOW=16
lavfi.signalstats.YAVG=21.8468
lavfi.signalstats.YHIGH=30
lavfi.signalstats.YMAX=236
lavfi.signalstats.UMIN=65
lavfi.signalstats.ULOW=127
lavfi.signalstats.UAVG=128.26
lavfi.signalstats.UHIGH=129
lavfi.signalstats.UMAX=168
lavfi.signalstats.VMIN=49
lavfi.signalstats.VLOW=128
lavfi.signalstats.VAVG=130.597
lavfi.signalstats.VHIGH=134
lavfi.signalstats.VMAX=226
lavfi.signalstats.SATMIN=0
lavfi.signalstats.SATLOW=0
lavfi.signalstats.SATAVG=3.20183
lavfi.signalstats.SATHIGH=6
lavfi.signalstats.SATMAX=98
lavfi.signalstats.HUEMED=180
lavfi.signalstats.HUEAVG=191.99
lavfi.signalstats.YDIF=0.00380789
lavfi.signalstats.UDIF=0.00953045
lavfi.signalstats.VDIF=0.0123676
lavfi.signalstats.YBITDEPTH=8
lavfi.signalstats.UBITDEPTH=8
lavfi.signalstats.VBITDEPTH=8
frame:31   pts:4800    pts_time:0.8
lavfi.signalstats.YMIN=8
lavfi.signalstats.YLOW=16
lavfi.signalstats.YAVG=22.0372
lavfi.signalstats.YHIGH=30
lavfi.signalstats.YMAX=243
lavfi.signalstats.UMIN=64
lavfi.signalstats.ULOW=127
lavfi.signalstats.UAVG=128.289
lavfi.signalstats.UHIGH=129
lavfi.signalstats.UMAX=167
lavfi.signalstats.VMIN=47
lavfi.signalstats.VLOW=128
lavfi.signalstats.VAVG=130.406
lavfi.signalstats.VHIGH=133
lavfi.signalstats.VMAX=233
lavfi.signalstats.SATMIN=0
lavfi.signalstats.SATLOW=0
lavfi.signalstats.SATAVG=3.01306
lavfi.signalstats.SATHIGH=5
lavfi.signalstats.SATMAX=105
lavfi.signalstats.HUEMED=180
lavfi.signalstats.HUEAVG=192.211
lavfi.signalstats.YDIF=0.355406
lavfi.signalstats.UDIF=0.137599
lavfi.signalstats.VDIF=0.358043
lavfi.signalstats.YBITDEPTH=8
lavfi.signalstats.UBITDEPTH=8
lavfi.signalstats.VBITDEPTH=8
frame:32   pts:4900    pts_time:0.816667
lavfi.signalstats.YMIN=8
lavfi.signalstats.YLOW=16
lavfi.signalstats.YAVG=22.2014
lavfi.signalstats.YHIGH=30
lavfi.signalstats.YMAX=243
lavfi.signalstats.UMIN=36
lavfi.signalstats.ULOW=127
lavfi.signalstats.UAVG=128.306
lavfi.signalstats.UHIGH=129
lavfi.signalstats.UMAX=217
lavfi.signalstats.VMIN=47
lavfi.signalstats.VLOW=128
lavfi.signalstats.VAVG=130.299
lavfi.signalstats.VHIGH=133
lavfi.signalstats.VMAX=244
lavfi.signalstats.SATMIN=0
lavfi.signalstats.SATLOW=0
lavfi.signalstats.SATAVG=2.93782
lavfi.signalstats.SATHIGH=5
lavfi.signalstats.SATMAX=116
lavfi.signalstats.HUEMED=180
lavfi.signalstats.HUEAVG=192.213
lavfi.signalstats.YDIF=0.259036
lavfi.signalstats.UDIF=0.0587595
lavfi.signalstats.VDIF=0.15711
lavfi.signalstats.YBITDEPTH=8
lavfi.signalstats.UBITDEPTH=8
lavfi.signalstats.VBITDEPTH=8
frame:33   pts:5000    pts_time:0.833333
lavfi.signalstats.YMIN=8
lavfi.signalstats.YLOW=16
lavfi.signalstats.YAVG=22.4273
lavfi.signalstats.YHIGH=30
lavfi.signalstats.YMAX=243
lavfi.signalstats.UMIN=37
lavfi.signalstats.ULOW=127
lavfi.signalstats.UAVG=128.31
lavfi.signalstats.UHIGH=129
lavfi.signalstats.UMAX=212
lavfi.signalstats.VMIN=47
lavfi.signalstats.VLOW=128
lavfi.signalstats.VAVG=130.271
lavfi.signalstats.VHIGH=133
lavfi.signalstats.VMAX=240
lavfi.signalstats.SATMIN=0
lavfi.signalstats.SATLOW=0
lavfi.signalstats.SATAVG=2.92738
lavfi.signalstats.SATHIGH=5
lavfi.signalstats.SATMAX=112
lavfi.signalstats.HUEMED=180
lavfi.signalstats.HUEAVG=192.298
lavfi.signalstats.YDIF=0.296767
lavfi.signalstats.UDIF=0.0434368
lavfi.signalstats.VDIF=0.0922475
lavfi.signalstats.YBITDEPTH=8
lavfi.signalstats.UBITDEPTH=8
lavfi.signalstats.VBITDEPTH=8
frame:34   pts:5100    pts_time:0.85
lavfi.signalstats.YMIN=8
lavfi.signalstats.YLOW=16
lavfi.signalstats.YAVG=22.4292
lavfi.signalstats.YHIGH=30
lavfi.signalstats.YMAX=243
lavfi.signalstats.UMIN=37
lavfi.signalstats.ULOW=127
lavfi.signalstats.UAVG=128.309
lavfi.signalstats.UHIGH=129
lavfi.signalstats.UMAX=214
lavfi.signalstats.VMIN=47
lavfi.signalstats.VLOW=128
lavfi.signalstats.VAVG=130.266
lavfi.signalstats.VHIGH=133
lavfi.signalstats.VMAX=239
lavfi.signalstats.SATMIN=0
lavfi.signalstats.SATLOW=0
lavfi.signalstats.SATAVG=2.92393
lavfi.signalstats.SATHIGH=5
lavfi.signalstats.SATMAX=111
lavfi.signalstats.HUEMED=180
lavfi.signalstats.HUEAVG=192.282
lavfi.signalstats.YDIF=0.0146483
lavfi.signalstats.UDIF=0.0161326
lavfi.signalstats.VDIF=0.029605
lavfi.signalstats.YBITDEPTH=8
lavfi.signalstats.UBITDEPTH=8
lavfi.signalstats.VBITDEPTH=8
frame:35   pts:5200    pts_time:0.866667
lavfi.signalstats.YMIN=8
lavfi.signalstats.YLOW=16
lavfi.signalstats.YAVG=22.828
lavfi.signalstats.YHIGH=30
lavfi.signalstats.YMAX=245
lavfi.signalstats.UMIN=37
lavfi.signalstats.ULOW=127
lavfi.signalstats.UAVG=128.326
lavfi.signalstats.UHIGH=129
lavfi.signalstats.UMAX=214
lavfi.signalstats.VMIN=47
lavfi.signalstats.VLOW=128
lavfi.signalstats.VAVG=130.197
lavfi.signalstats.VHIGH=133
lavfi.signalstats.VMAX=240
lavfi.signalstats.SATMIN=0
lavfi.signalstats.SATLOW=0
lavfi.signalstats.SATAVG=2.89751
lavfi.signalstats.SATHIGH=5
lavfi.signalstats.SATMAX=112
lavfi.signalstats.HUEMED=180
lavfi.signalstats.HUEAVG=192.148
lavfi.signalstats.YDIF=0.64552
lavfi.signalstats.UDIF=0.077638
lavfi.signalstats.VDIF=0.182677
lavfi.signalstats.YBITDEPTH=8
lavfi.signalstats.UBITDEPTH=8
lavfi.signalstats.VBITDEPTH=8
frame:36   pts:6400    pts_time:1.066667
lavfi.signalstats.YMIN=8
lavfi.signalstats.YLOW=16
lavfi.signalstats.YAVG=22.8248
lavfi.signalstats.YHIGH=29
lavfi.signalstats.YMAX=245
lavfi.signalstats.UMIN=39
lavfi.signalstats.ULOW=127
lavfi.signalstats.UAVG=128.329
lavfi.signalstats.UHIGH=129
lavfi.signalstats.UMAX=214
lavfi.signalstats.VMIN=47
lavfi.signalstats.VLOW=128
lavfi.signalstats.VAVG=130.205
lavfi.signalstats.VHIGH=133
lavfi.signalstats.VMAX=239
lavfi.signalstats.SATMIN=0
lavfi.signalstats.SATLOW=0
lavfi.signalstats.SATAVG=2.90437
lavfi.signalstats.SATHIGH=5
lavfi.signalstats.SATMAX=112
lavfi.signalstats.HUEMED=180
lavfi.signalstats.HUEAVG=192.182
lavfi.signalstats.YDIF=0.0487866
lavfi.signalstats.UDIF=0.0297337
lavfi.signalstats.VDIF=0.0431525
lavfi.signalstats.YBITDEPTH=8
lavfi.signalstats.UBITDEPTH=8
lavfi.signalstats.VBITDEPTH=8
frame:37   pts:6500    pts_time:1.083333
lavfi.signalstats.YMIN=8
lavfi.signalstats.YLOW=16
lavfi.signalstats.YAVG=21.6675
lavfi.signalstats.YHIGH=25
lavfi.signalstats.YMAX=245
lavfi.signalstats.UMIN=39
lavfi.signalstats.ULOW=127
lavfi.signalstats.UAVG=128.002
lavfi.signalstats.UHIGH=129
lavfi.signalstats.UMAX=214
lavfi.signalstats.VMIN=47
lavfi.signalstats.VLOW=128
lavfi.signalstats.VAVG=130.493
lavfi.signalstats.VHIGH=134
lavfi.signalstats.VMAX=239
lavfi.signalstats.SATMIN=0
lavfi.signalstats.SATLOW=0
lavfi.signalstats.SATAVG=2.84631
lavfi.signalstats.SATHIGH=6
lavfi.signalstats.SATMAX=112
lavfi.signalstats.HUEMED=180
lavfi.signalstats.HUEAVG=183.647
lavfi.signalstats.YDIF=3.84567
lavfi.signalstats.UDIF=0.681607
lavfi.signalstats.VDIF=1.69852
lavfi.signalstats.YBITDEPTH=8
lavfi.signalstats.UBITDEPTH=8
lavfi.signalstats.VBITDEPTH=8
frame:38   pts:6600    pts_time:1.1
lavfi.signalstats.YMIN=8
lavfi.signalstats.YLOW=16
lavfi.signalstats.YAVG=22.8216
lavfi.signalstats.YHIGH=29
lavfi.signalstats.YMAX=241
lavfi.signalstats.UMIN=39
lavfi.signalstats.ULOW=128
lavfi.signalstats.UAVG=128.323
lavfi.signalstats.UHIGH=129
lavfi.signalstats.UMAX=213
lavfi.signalstats.VMIN=47
lavfi.signalstats.VLOW=128
lavfi.signalstats.VAVG=130.201
lavfi.signalstats.VHIGH=133
lavfi.signalstats.VMAX=241
lavfi.signalstats.SATMIN=0
lavfi.signalstats.SATLOW=0
lavfi.signalstats.SATAVG=2.89611
lavfi.signalstats.SATHIGH=5
lavfi.signalstats.SATMAX=115
lavfi.signalstats.HUEMED=180
lavfi.signalstats.HUEAVG=192.112
lavfi.signalstats.YDIF=3.86342
lavfi.signalstats.UDIF=0.690435
lavfi.signalstats.VDIF=1.71668
lavfi.signalstats.YBITDEPTH=8
lavfi.signalstats.UBITDEPTH=8
lavfi.signalstats.VBITDEPTH=8
frame:39   pts:6700    pts_time:1.116667
lavfi.signalstats.YMIN=8
lavfi.signalstats.YLOW=16
lavfi.signalstats.YAVG=22.8248
lavfi.signalstats.YHIGH=29
lavfi.signalstats.YMAX=241
lavfi.signalstats.UMIN=39
lavfi.signalstats.ULOW=127
lavfi.signalstats.UAVG=128.323
lavfi.signalstats.UHIGH=129
lavfi.signalstats.UMAX=213
lavfi.signalstats.VMIN=47
lavfi.signalstats.VLOW=128
lavfi.signalstats.VAVG=130.202
lavfi.signalstats.VHIGH=133
lavfi.signalstats.VMAX=241
lavfi.signalstats.SATMIN=0
lavfi.signalstats.SATLOW=0
lavfi.signalstats.SATAVG=2.89699
lavfi.signalstats.SATHIGH=5
lavfi.signalstats.SATMAX=115
lavfi.signalstats.HUEMED=180
lavfi.signalstats.HUEAVG=192.087
lavfi.signalstats.YDIF=0.0117146
lavfi.signalstats.UDIF=0.00453729
lavfi.signalstats.VDIF=0.0140302
lavfi.signalstats.YBITDEPTH=8
lavfi.signalstats.UBITDEPTH=8
lavfi.signalstats.VBITDEPTH=8
frame:40   pts:6800    pts_time:1.133333
lavfi.signalstats.YMIN=8
lavfi.signalstats.YLOW=16
lavfi.signalstats.YAVG=22.8278
lavfi.signalstats.YHIGH=29
lavfi.signalstats.YMAX=240
lavfi.signalstats.UMIN=39
lavfi.signalstats.ULOW=128
lavfi.signalstats.UAVG=128.331
lavfi.signalstats.UHIGH=129
lavfi.signalstats.UMAX=213
lavfi.signalstats.VMIN=47
lavfi.signalstats.VLOW=128
lavfi.signalstats.VAVG=130.206
lavfi.signalstats.VHIGH=133
lavfi.signalstats.VMAX=241
lavfi.signalstats.SATMIN=0
lavfi.signalstats.SATLOW=0
lavfi.signalstats.SATAVG=2.90308
lavfi.signalstats.SATHIGH=5
lavfi.signalstats.SATMAX=116
lavfi.signalstats.HUEMED=180
lavfi.signalstats.HUEAVG=192.3
lavfi.signalstats.YDIF=0.0468545
lavfi.signalstats.UDIF=0.0240648
lavfi.signalstats.VDIF=0.0385455
lavfi.signalstats.YBITDEPTH=8
lavfi.signalstats.UBITDEPTH=8
lavfi.signalstats.VBITDEPTH=8
frame:41   pts:6900    pts_time:1.15
lavfi.signalstats.YMIN=8
lavfi.signalstats.YLOW=16
lavfi.signalstats.YAVG=22.8262
lavfi.signalstats.YHIGH=29
lavfi.signalstats.YMAX=240
lavfi.signalstats.UMIN=39
lavfi.signalstats.ULOW=127
lavfi.signalstats.UAVG=128.327
lavfi.signalstats.UHIGH=129
lavfi.signalstats.UMAX=213
lavfi.signalstats.VMIN=47
lavfi.signalstats.VLOW=128
lavfi.signalstats.VAVG=130.199
lavfi.signalstats.VHIGH=133
lavfi.signalstats.VMAX=241
lavfi.signalstats.SATMIN=0
lavfi.signalstats.SATLOW=0
lavfi.signalstats.SATAVG=2.89603
lavfi.signalstats.SATHIGH=5
lavfi.signalstats.SATMAX=116
lavfi.signalstats.HUEMED=180
lavfi.signalstats.HUEAVG=192.104
lavfi.signalstats.YDIF=0.0118809
lavfi.signalstats.UDIF=0.0079483
lavfi.signalstats.VDIF=0.0154568
lavfi.signalstats.YBITDEPTH=8
lavfi.signalstats.UBITDEPTH=8
lavfi.signalstats.VBITDEPTH=8
frame:42   pts:7000    pts_time:1.166667
lavfi.signalstats.YMIN=2
lavfi.signalstats.YLOW=16
lavfi.signalstats.YAVG=21.6793
lavfi.signalstats.YHIGH=25
lavfi.signalstats.YMAX=240
lavfi.signalstats.UMIN=39
lavfi.signalstats.ULOW=127
lavfi.signalstats.UAVG=128.014
lavfi.signalstats.UHIGH=129
lavfi.signalstats.UMAX=213
lavfi.signalstats.VMIN=47
lavfi.signalstats.VLOW=128
lavfi.signalstats.VAVG=130.497
lavfi.signalstats.VHIGH=134
lavfi.signalstats.VMAX=241
lavfi.signalstats.SATMIN=0
lavfi.signalstats.SATLOW=0
lavfi.signalstats.SATAVG=2.85291
lavfi.signalstats.SATHIGH=6
lavfi.signalstats.SATMAX=116
lavfi.signalstats.HUEMED=180
lavfi.signalstats.HUEAVG=183.987
lavfi.signalstats.YDIF=3.84627
lavfi.signalstats.UDIF=0.677965
lavfi.signalstats.VDIF=1.68548
lavfi.signalstats.YBITDEPTH=8
lavfi.signalstats.UBITDEPTH=8
lavfi.signalstats.VBITDEPTH=8
frame:43   pts:7100    pts_time:1.183333
lavfi.signalstats.YMIN=8
lavfi.signalstats.YLOW=16
lavfi.signalstats.YAVG=22.8283
lavfi.signalstats.YHIGH=29
lavfi.signalstats.YMAX=240
lavfi.signalstats.UMIN=39
lavfi.signalstats.ULOW=128
lavfi.signalstats.UAVG=128.323
lavfi.signalstats.UHIGH=129
lavfi.signalstats.UMAX=213
lavfi.signalstats.VMIN=47
lavfi.signalstats.VLOW=128
lavfi.signalstats.VAVG=130.202
lavfi.signalstats.VHIGH=133
lavfi.signalstats.VMAX=241
lavfi.signalstats.SATMIN=0
lavfi.signalstats.SATLOW=0
lavfi.signalstats.SATAVG=2.89767
lavfi.signalstats.SATHIGH=5
lavfi.signalstats.SATMAX=116
lavfi.signalstats.HUEMED=180
lavfi.signalstats.HUEAVG=192.023
lavfi.signalstats.YDIF=3.8428
lavfi.signalstats.UDIF=0.676506
lavfi.signalstats.VDIF=1.68219
lavfi.signalstats.YBITDEPTH=8
lavfi.signalstats.UBITDEPTH=8
lavfi.signalstats.VBITDEPTH=8
frame:44   pts:7200    pts_time:1.2
lavfi.signalstats.YMIN=8
lavfi.signalstats.YLOW=16
lavfi.signalstats.YAVG=22.8294
lavfi.signalstats.YHIGH=29
lavfi.signalstats.YMAX=240
lavfi.signalstats.UMIN=39
lavfi.signalstats.ULOW=128
lavfi.signalstats.UAVG=128.328
lavfi.signalstats.UHIGH=129
lavfi.signalstats.UMAX=213
lavfi.signalstats.VMIN=47
lavfi.signalstats.VLOW=128
lavfi.signalstats.VAVG=130.203
lavfi.signalstats.VHIGH=133
lavfi.signalstats.VMAX=241
lavfi.signalstats.SATMIN=0
lavfi.signalstats.SATLOW=0
lavfi.signalstats.SATAVG=2.9004
lavfi.signalstats.SATHIGH=5
lavfi.signalstats.SATMAX=116
lavfi.signalstats.HUEMED=180
lavfi.signalstats.HUEAVG=192.147
lavfi.signalstats.YDIF=0.00922341
lavfi.signalstats.UDIF=0.00833981
lavfi.signalstats.VDIF=0.0103939
lavfi.signalstats.YBITDEPTH=8
lavfi.signalstats.UBITDEPTH=8
lavfi.signalstats.VBITDEPTH=8
frame:45   pts:7300    pts_time:1.216667
lavfi.signalstats.YMIN=8
lavfi.signalstats.YLOW=16
lavfi.signalstats.YAVG=22.8286
lavfi.signalstats.YHIGH=29
lavfi.signalstats.YMAX=240
lavfi.signalstats.UMIN=39
lavfi.signalstats.ULOW=128
lavfi.signalstats.UAVG=128.326
lavfi.signalstats.UHIGH=129
lavfi.signalstats.UMAX=213
lavfi.signalstats.VMIN=47
lavfi.signalstats.VLOW=128
lavfi.signalstats.VAVG=130.2
lavfi.signalstats.VHIGH=133
lavfi.signalstats.VMAX=241
lavfi.signalstats.SATMIN=0
lavfi.signalstats.SATLOW=0
lavfi.signalstats.SATAVG=2.89803
lavfi.signalstats.SATHIGH=5
lavfi.signalstats.SATMAX=116
lavfi.signalstats.HUEMED=180
lavfi.signalstats.HUEAVG=192.074
lavfi.signalstats.YDIF=0.00434555
lavfi.signalstats.UDIF=0.00275133
lavfi.signalstats.VDIF=0.00777668
lavfi.signalstats.YBITDEPTH=8
lavfi.signalstats.UBITDEPTH=8
lavfi.signalstats.VBITDEPTH=8
frame:46   pts:7400    pts_time:1.233333
lavfi.signalstats.YMIN=8
lavfi.signalstats.YLOW=16
lavfi.signalstats.YAVG=22.8291
lavfi.signalstats.YHIGH=29
lavfi.signalstats.YMAX=240
lavfi.signalstats.UMIN=39
lavfi.signalstats.ULOW=128
lavfi.signalstats.UAVG=128.327
lavfi.signalstats.UHIGH=129
lavfi.signalstats.UMAX=213
lavfi.signalstats.VMIN=47
lavfi.signalstats.VLOW=128
lavfi.signalstats.VAVG=130.201
lavfi.signalstats.VHIGH=133
lavfi.signalstats.VMAX=241
lavfi.signalstats.SATMIN=0
lavfi.signalstats.SATLOW=0
lavfi.signalstats.SATAVG=2.89903
lavfi.signalstats.SATHIGH=5
lavfi.signalstats.SATMAX=116
lavfi.signalstats.HUEMED=180
lavfi.signalstats.HUEAVG=192.105
lavfi.signalstats.YDIF=0.0035585
lavfi.signalstats.UDIF=0.00205411
lavfi.signalstats.VDIF=0.00577083
lavfi.signalstats.YBITDEPTH=8
lavfi.signalstats.UBITDEPTH=8
lavfi.signalstats.VBITDEPTH=8
frame:47   pts:7500    pts_time:1.25
lavfi.signalstats.YMIN=8
lavfi.signalstats.YLOW=16
lavfi.signalstats.YAVG=22.829
lavfi.signalstats.YHIGH=29
lavfi.signalstats.YMAX=240
lavfi.signalstats.UMIN=39
lavfi.signalstats.ULOW=128
lavfi.signalstats.UAVG=128.323
lavfi.signalstats.UHIGH=129
lavfi.signalstats.UMAX=213
lavfi.signalstats.VMIN=47
lavfi.signalstats.VLOW=128
lavfi.signalstats.VAVG=130.201
lavfi.signalstats.VHIGH=133
lavfi.signalstats.VMAX=241
lavfi.signalstats.SATMIN=0
lavfi.signalstats.SATLOW=0
lavfi.signalstats.SATAVG=2.89768
lavfi.signalstats.SATHIGH=5
lavfi.signalstats.SATMAX=116
lavfi.signalstats.HUEMED=180
lavfi.signalstats.HUEAVG=191.975
lavfi.signalstats.YDIF=0.00297659
lavfi.signalstats.UDIF=0.00552412
lavfi.signalstats.VDIF=0.00375426
lavfi.signalstats.YBITDEPTH=8
lavfi.signalstats.UBITDEPTH=8
lavfi.signalstats.VBITDEPTH=8
frame:48   pts:7600    pts_time:1.266667
lavfi.signalstats.YMIN=8
lavfi.signalstats.YLOW=16
lavfi.signalstats.YAVG=22.8285
lavfi.signalstats.YHIGH=29
lavfi.signalstats.YMAX=240
lavfi.signalstats.UMIN=39
lavfi.signalstats.ULOW=128
lavfi.signalstats.UAVG=128.326
lavfi.signalstats.UHIGH=129
lavfi.signalstats.UMAX=213
lavfi.signalstats.VMIN=47
lavfi.signalstats.VLOW=128
lavfi.signalstats.VAVG=130.2
lavfi.signalstats.VHIGH=133
lavfi.signalstats.VMAX=241
lavfi.signalstats.SATMIN=0
lavfi.signalstats.SATLOW=0
lavfi.signalstats.SATAVG=2.89851
lavfi.signalstats.SATHIGH=5
lavfi.signalstats.SATMAX=116
lavfi.signalstats.HUEMED=180
lavfi.signalstats.HUEAVG=192.094
lavfi.signalstats.YDIF=0.00187713
lavfi.signalstats.UDIF=0.00458556
lavfi.signalstats.VDIF=0.00297659
lavfi.signalstats.YBITDEPTH=8
lavfi.signalstats.UBITDEPTH=8
lavfi.signalstats.VBITDEPTH=8
frame:49   pts:7700    pts_time:1.283333
lavfi.signalstats.YMIN=8
lavfi.signalstats.YLOW=16
lavfi.signalstats.YAVG=22.8292
lavfi.signalstats.YHIGH=29
lavfi.signalstats.YMAX=240
lavfi.signalstats.UMIN=39
lavfi.signalstats.ULOW=128
lavfi.signalstats.UAVG=128.326
lavfi.signalstats.UHIGH=129
lavfi.signalstats.UMAX=213
lavfi.signalstats.VMIN=47
lavfi.signalstats.VLOW=128
lavfi.signalstats.VAVG=130.201
lavfi.signalstats.VHIGH=133
lavfi.signalstats.VMAX=241
lavfi.signalstats.SATMIN=0
lavfi.signalstats.SATLOW=0
lavfi.signalstats.SATAVG=2.8989
lavfi.signalstats.SATHIGH=5
lavfi.signalstats.SATMAX=116
lavfi.signalstats.HUEMED=180
lavfi.signalstats.HUEAVG=192.083
lavfi.signalstats.YDIF=0.00143868
lavfi.signalstats.UDIF=0.00108337
lavfi.signalstats.VDIF=0.00234373
lavfi.signalstats.YBITDEPTH=8
lavfi.signalstats.UBITDEPTH=8
lavfi.signalstats.VBITDEPTH=8
frame:50   pts:7800    pts_time:1.3
lavfi.signalstats.YMIN=8
lavfi.signalstats.YLOW=16
lavfi.signalstats.YAVG=22.8285
lavfi.signalstats.YHIGH=29
lavfi.signalstats.YMAX=240
lavfi.signalstats.UMIN=39
lavfi.signalstats.ULOW=128
lavfi.signalstats.UAVG=128.326
lavfi.signalstats.UHIGH=129
lavfi.signalstats.UMAX=213
lavfi.signalstats.VMIN=47
lavfi.signalstats.VLOW=128
lavfi.signalstats.VAVG=130.2
lavfi.signalstats.VHIGH=133
lavfi.signalstats.VMAX=241
lavfi.signalstats.SATMIN=0
lavfi.signalstats.SATLOW=0
lavfi.signalstats.SATAVG=2.89845
lavfi.signalstats.SATHIGH=5
lavfi.signalstats.SATMAX=116
lavfi.signalstats.HUEMED=180
lavfi.signalstats.HUEAVG=192.089
lavfi.signalstats.YDIF=0.00140651
lavfi.signalstats.UDIF=0.00101901
lavfi.signalstats.VDIF=0.0022901
lavfi.signalstats.YBITDEPTH=8
lavfi.signalstats.UBITDEPTH=8
lavfi.signalstats.VBITDEPTH=8
frame:51   pts:7900    pts_time:1.316667
lavfi.signalstats.YMIN=8
lavfi.signalstats.YLOW=16
lavfi.signalstats.YAVG=22.829
lavfi.signalstats.YHIGH=29
lavfi.signalstats.YMAX=240
lavfi.signalstats.UMIN=39
lavfi.signalstats.ULOW=128
lavfi.signalstats.UAVG=128.323
lavfi.signalstats.UHIGH=129
lavfi.signalstats.UMAX=213
lavfi.signalstats.VMIN=47
lavfi.signalstats.VLOW=128
lavfi.signalstats.VAVG=130.201
lavfi.signalstats.VHIGH=133
lavfi.signalstats.VMAX=241
lavfi.signalstats.SATMIN=0
lavfi.signalstats.SATLOW=0
lavfi.signalstats.SATAVG=2.89772
lavfi.signalstats.SATHIGH=5
lavfi.signalstats.SATMAX=116
lavfi.signalstats.HUEMED=180
lavfi.signalstats.HUEAVG=191.975
lavfi.signalstats.YDIF=0.00134617
lavfi.signalstats.UDIF=0.00439784
lavfi.signalstats.VDIF=0.00226328
lavfi.signalstats.YBITDEPTH=8
lavfi.signalstats.UBITDEPTH=8
lavfi.signalstats.VBITDEPTH=8
frame:52   pts:8000    pts_time:1.333333
lavfi.signalstats.YMIN=8
lavfi.signalstats.YLOW=16
lavfi.signalstats.YAVG=22.8283
lavfi.signalstats.YHIGH=29
lavfi.signalstats.YMAX=240
lavfi.signalstats.UMIN=39
lavfi.signalstats.ULOW=128
lavfi.signalstats.UAVG=128.326
lavfi.signalstats.UHIGH=129
lavfi.signalstats.UMAX=213
lavfi.signalstats.VMIN=47
lavfi.signalstats.VLOW=128
lavfi.signalstats.VAVG=130.2
lavfi.signalstats.VHIGH=133
lavfi.signalstats.VMAX=241
lavfi.signalstats.SATMIN=0
lavfi.signalstats.SATLOW=0
lavfi.signalstats.SATAVG=2.8983
lavfi.signalstats.SATHIGH=5
lavfi.signalstats.SATMAX=116
lavfi.signalstats.HUEMED=180
lavfi.signalstats.HUEAVG=192.086
lavfi.signalstats.YDIF=0.00120136
lavfi.signalstats.UDIF=0.00424767
lavfi.signalstats.VDIF=0.0020273
lavfi.signalstats.YBITDEPTH=8
lavfi.signalstats.UBITDEPTH=8
lavfi.signalstats.VBITDEPTH=8
frame:53   pts:8100    pts_time:1.35
lavfi.signalstats.YMIN=8
lavfi.signalstats.YLOW=16
lavfi.signalstats.YAVG=22.8292
lavfi.signalstats.YHIGH=29
lavfi.signalstats.YMAX=240
lavfi.signalstats.UMIN=39
lavfi.signalstats.ULOW=128
lavfi.signalstats.UAVG=128.326
lavfi.signalstats.UHIGH=129
lavfi.signalstats.UMAX=213
lavfi.signalstats.VMIN=47
lavfi.signalstats.VLOW=128
lavfi.signalstats.VAVG=130.201
lavfi.signalstats.VHIGH=133
lavfi.signalstats.VMAX=241
lavfi.signalstats.SATMIN=0
lavfi.signalstats.SATLOW=0
lavfi.signalstats.SATAVG=2.89909
lavfi.signalstats.SATHIGH=5
lavfi.signalstats.SATMAX=116
lavfi.signalstats.HUEMED=180
lavfi.signalstats.HUEAVG=192.081
lavfi.signalstats.YDIF=0.0010941
lavfi.signalstats.UDIF=0.00081521
lavfi.signalstats.VDIF=0.00185568
lavfi.signalstats.YBITDEPTH=8
lavfi.signalstats.UBITDEPTH=8
lavfi.signalstats.VBITDEPTH=8
frame:54   pts:8200    pts_time:1.366667
lavfi.signalstats.YMIN=8
lavfi.signalstats.YLOW=16
lavfi.signalstats.YAVG=22.8283
lavfi.signalstats.YHIGH=29
lavfi.signalstats.YMAX=240
lavfi.signalstats.UMIN=39
lavfi.signalstats.ULOW=128
lavfi.signalstats.UAVG=128.326
lavfi.signalstats.UHIGH=129
lavfi.signalstats.UMAX=213
lavfi.signalstats.VMIN=47
lavfi.signalstats.VLOW=128
lavfi.signalstats.VAVG=130.2
lavfi.signalstats.VHIGH=133
lavfi.signalstats.VMAX=241
lavfi.signalstats.SATMIN=0
lavfi.signalstats.SATLOW=0
lavfi.signalstats.SATAVG=2.89833
lavfi.signalstats.SATHIGH=5
lavfi.signalstats.SATMAX=116
lavfi.signalstats.HUEMED=180
lavfi.signalstats.HUEAVG=192.088
lavfi.signalstats.YDIF=0.0010941
lavfi.signalstats.UDIF=0.00081521
lavfi.signalstats.VDIF=0.00185568
lavfi.signalstats.YBITDEPTH=8
lavfi.signalstats.UBITDEPTH=8
lavfi.signalstats.VBITDEPTH=8
frame:55   pts:8300    pts_time:1.383333
lavfi.signalstats.YMIN=8
lavfi.signalstats.YLOW=16
lavfi.signalstats.YAVG=22.829
lavfi.signalstats.YHIGH=29
lavfi.signalstats.YMAX=240
lavfi.signalstats.UMIN=39
lavfi.signalstats.ULOW=128
lavfi.signalstats.UAVG=128.323
lavfi.signalstats.UHIGH=129
lavfi.signalstats.UMAX=213
lavfi.signalstats.VMIN=47
lavfi.signalstats.VLOW=128
lavfi.signalstats.VAVG=130.201
lavfi.signalstats.VHIGH=133
lavfi.signalstats.VMAX=241
lavfi.signalstats.SATMIN=0
lavfi.signalstats.SATLOW=0
lavfi.signalstats.SATAVG=2.89779
lavfi.signalstats.SATHIGH=5
lavfi.signalstats.SATMAX=116
lavfi.signalstats.HUEMED=180
lavfi.signalstats.HUEAVG=191.978
lavfi.signalstats.YDIF=0.00121209
lavfi.signalstats.UDIF=0.00424767
lavfi.signalstats.VDIF=0.0020273
lavfi.signalstats.YBITDEPTH=8
lavfi.signalstats.UBITDEPTH=8
lavfi.signalstats.VBITDEPTH=8
frame:56   pts:8400    pts_time:1.4
lavfi.signalstats.YMIN=8
lavfi.signalstats.YLOW=16
lavfi.signalstats.YAVG=22.8283
lavfi.signalstats.YHIGH=29
lavfi.signalstats.YMAX=240
lavfi.signalstats.UMIN=39
lavfi.signalstats.ULOW=128
lavfi.signalstats.UAVG=128.326
lavfi.signalstats.UHIGH=129
lavfi.signalstats.UMAX=213
lavfi.signalstats.VMIN=47
lavfi.signalstats.VLOW=128
lavfi.signalstats.VAVG=130.2
lavfi.signalstats.VHIGH=133
lavfi.signalstats.VMAX=241
lavfi.signalstats.SATMIN=0
lavfi.signalstats.SATLOW=0
lavfi.signalstats.SATAVG=2.89834
lavfi.signalstats.SATHIGH=5
lavfi.signalstats.SATMAX=116
lavfi.signalstats.HUEMED=180
lavfi.signalstats.HUEAVG=192.087
lavfi.signalstats.YDIF=0.00116918
lavfi.signalstats.UDIF=0.00424767
lavfi.signalstats.VDIF=0.0020273
lavfi.signalstats.YBITDEPTH=8
lavfi.signalstats.UBITDEPTH=8
lavfi.signalstats.VBITDEPTH=8
frame:57   pts:8500    pts_time:1.416667
lavfi.signalstats.YMIN=8
lavfi.signalstats.YLOW=16
lavfi.signalstats.YAVG=22.8292
lavfi.signalstats.YHIGH=29
lavfi.signalstats.YMAX=240
lavfi.signalstats.UMIN=39
lavfi.signalstats.ULOW=128
lavfi.signalstats.UAVG=128.326
lavfi.signalstats.UHIGH=129
lavfi.signalstats.UMAX=213
lavfi.signalstats.VMIN=47
lavfi.signalstats.VLOW=128
lavfi.signalstats.VAVG=130.201
lavfi.signalstats.VHIGH=133
lavfi.signalstats.VMAX=241
lavfi.signalstats.SATMIN=0
lavfi.signalstats.SATLOW=0
lavfi.signalstats.SATAVG=2.89909
lavfi.signalstats.SATHIGH=5
lavfi.signalstats.SATMAX=116
lavfi.signalstats.HUEMED=180
lavfi.signalstats.HUEAVG=192.081
lavfi.signalstats.YDIF=0.00106192
lavfi.signalstats.UDIF=0.00081521
lavfi.signalstats.VDIF=0.00185568
lavfi.signalstats.YBITDEPTH=8
lavfi.signalstats.UBITDEPTH=8
lavfi.signalstats.VBITDEPTH=8
frame:58   pts:8600    pts_time:1.433333
lavfi.signalstats.YMIN=8
lavfi.signalstats.YLOW=16
lavfi.signalstats.YAVG=22.8283
lavfi.signalstats.YHIGH=29
lavfi.signalstats.YMAX=240
lavfi.signalstats.UMIN=39
lavfi.signalstats.ULOW=128
lavfi.signalstats.UAVG=128.326
lavfi.signalstats.UHIGH=129
lavfi.signalstats.UMAX=213
lavfi.signalstats.VMIN=47
lavfi.signalstats.VLOW=128
lavfi.signalstats.VAVG=130.2
lavfi.signalstats.VHIGH=133
lavfi.signalstats.VMAX=241
lavfi.signalstats.SATMIN=0
lavfi.signalstats.SATLOW=0
lavfi.signalstats.SATAVG=2.8983
lavfi.signalstats.SATHIGH=5
lavfi.signalstats.SATMAX=116
lavfi.signalstats.HUEMED=180
lavfi.signalstats.HUEAVG=192.086
lavfi.signalstats.YDIF=0.00106192
lavfi.signalstats.UDIF=0.00081521
lavfi.signalstats.VDIF=0.00185568
lavfi.signalstats.YBITDEPTH=8
lavfi.signalstats.UBITDEPTH=8
lavfi.signalstats.VBITDEPTH=8
frame:59   pts:8700    pts_time:1.45
lavfi.signalstats.YMIN=8
lavfi.signalstats.YLOW=16
lavfi.signalstats.YAVG=22.829
lavfi.signalstats.YHIGH=29
lavfi.signalstats.YMAX=240
lavfi.signalstats.UMIN=39
lavfi.signalstats.ULOW=128
lavfi.signalstats.UAVG=128.323
lavfi.signalstats.UHIGH=129
lavfi.signalstats.UMAX=213
lavfi.signalstats.VMIN=47
lavfi.signalstats.VLOW=128
lavfi.signalstats.VAVG=130.201
lavfi.signalstats.VHIGH=133
lavfi.signalstats.VMAX=241
lavfi.signalstats.SATMIN=0
lavfi.signalstats.SATLOW=0
lavfi.signalstats.SATAVG=2.89772
lavfi.signalstats.SATHIGH=5
lavfi.signalstats.SATMAX=116
lavfi.signalstats.HUEMED=180
lavfi.signalstats.HUEAVG=191.975
lavfi.signalstats.YDIF=0.00116918
lavfi.signalstats.UDIF=0.00424767
lavfi.signalstats.VDIF=0.0020273
lavfi.signalstats.YBITDEPTH=8
lavfi.signalstats.UBITDEPTH=8
lavfi.signalstats.VBITDEPTH=8
frame:60   pts:8800    pts_time:1.466667
lavfi.signalstats.YMIN=8
lavfi.signalstats.YLOW=16
lavfi.signalstats.YAVG=22.8294
lavfi.signalstats.YHIGH=29
lavfi.signalstats.YMAX=240
lavfi.signalstats.UMIN=39
lavfi.signalstats.ULOW=128
lavfi.signalstats.UAVG=128.322
lavfi.signalstats.UHIGH=129
lavfi.signalstats.UMAX=213
lavfi.signalstats.VMIN=47
lavfi.signalstats.VLOW=128
lavfi.signalstats.VAVG=130.202
lavfi.signalstats.VHIGH=133
lavfi.signalstats.VMAX=241
lavfi.signalstats.SATMIN=0
lavfi.signalstats.SATLOW=0
lavfi.signalstats.SATAVG=2.89885
lavfi.signalstats.SATHIGH=5
lavfi.signalstats.SATMAX=116
lavfi.signalstats.HUEMED=180
lavfi.signalstats.HUEAVG=191.993
lavfi.signalstats.YDIF=0.00389772
lavfi.signalstats.UDIF=0.00314285
lavfi.signalstats.VDIF=0.00481081
lavfi.signalstats.YBITDEPTH=8
lavfi.signalstats.UBITDEPTH=8
lavfi.signalstats.VBITDEPTH=8
frame:61   pts:8900    pts_time:1.483333
lavfi.signalstats.YMIN=6
lavfi.signalstats.YLOW=16
lavfi.signalstats.YAVG=21.6842
lavfi.signalstats.YHIGH=25
lavfi.signalstats.YMAX=240
lavfi.signalstats.UMIN=39
lavfi.signalstats.ULOW=127
lavfi.signalstats.UAVG=128.022
lavfi.signalstats.UHIGH=129
lavfi.signalstats.UMAX=213
lavfi.signalstats.VMIN=47
lavfi.signalstats.VLOW=128
lavfi.signalstats.VAVG=130.516
lavfi.signalstats.VHIGH=134
lavfi.signalstats.VMAX=241
lavfi.signalstats.SATMIN=0
lavfi.signalstats.SATLOW=0
lavfi.signalstats.SATAVG=2.87135
lavfi.signalstats.SATHIGH=6
lavfi.signalstats.SATMAX=116
lavfi.signalstats.HUEMED=180
lavfi.signalstats.HUEAVG=183.878
lavfi.signalstats.YDIF=3.84134
lavfi.signalstats.UDIF=0.667614
lavfi.signalstats.VDIF=1.69599
lavfi.signalstats.YBITDEPTH=8
lavfi.signalstats.UBITDEPTH=8
lavfi.signalstats.VBITDEPTH=8
frame:62   pts:9000    pts_time:1.5
lavfi.signalstats.YMIN=10
lavfi.signalstats.YLOW=16
lavfi.signalstats.YAVG=22.8284
lavfi.signalstats.YHIGH=29
lavfi.signalstats.YMAX=240
lavfi.signalstats.UMIN=39
lavfi.signalstats.ULOW=128
lavfi.signalstats.UAVG=128.329
lavfi.signalstats.UHIGH=129
lavfi.signalstats.UMAX=213
lavfi.signalstats.VMIN=47
lavfi.signalstats.VLOW=128
lavfi.signalstats.VAVG=130.204
lavfi.signalstats.VHIGH=133
lavfi.signalstats.VMAX=241
lavfi.signalstats.SATMIN=0
lavfi.signalstats.SATLOW=0
lavfi.signalstats.SATAVG=2.90208
lavfi.signalstats.SATHIGH=5
lavfi.signalstats.SATMAX=116
lavfi.signalstats.HUEMED=180
lavfi.signalstats.HUEAVG=192.015
lavfi.signalstats.YDIF=3.84115
lavfi.signalstats.UDIF=0.6663
lavfi.signalstats.VDIF=1.69637
lavfi.signalstats.YBITDEPTH=8
lavfi.signalstats.UBITDEPTH=8
lavfi.signalstats.VBITDEPTH=8
frame:63   pts:9100    pts_time:1.516667
lavfi.signalstats.YMIN=10
lavfi.signalstats.YLOW=16
lavfi.signalstats.YAVG=22.8291
lavfi.signalstats.YHIGH=29
lavfi.signalstats.YMAX=240
lavfi.signalstats.UMIN=39
lavfi.signalstats.ULOW=128
lavfi.signalstats.UAVG=128.329
lavfi.signalstats.UHIGH=129
lavfi.signalstats.UMAX=213
lavfi.signalstats.VMIN=47
lavfi.signalstats.VLOW=128
lavfi.signalstats.VAVG=130.202
lavfi.signalstats.VHIGH=133
lavfi.signalstats.VMAX=241
lavfi.signalstats.SATMIN=0
lavfi.signalstats.SATLOW=0
lavfi.signalstats.SATAVG=2.90021
lavfi.signalstats.SATHIGH=5
lavfi.signalstats.SATMAX=116
lavfi.signalstats.HUEMED=180
lavfi.signalstats.HUEAVG=191.996
lavfi.signalstats.YDIF=0.00553351
lavfi.signalstats.UDIF=0.00358263
lavfi.signalstats.VDIF=0.00554021
lavfi.signalstats.YBITDEPTH=8
lavfi.signalstats.UBITDEPTH=8
lavfi.signalstats.VBITDEPTH=8
frame:64   pts:9200    pts_time:1.533333
lavfi.signalstats.YMIN=10
lavfi.signalstats.YLOW=16
lavfi.signalstats.YAVG=22.8277
lavfi.signalstats.YHIGH=29
lavfi.signalstats.YMAX=240
lavfi.signalstats.UMIN=39
lavfi.signalstats.ULOW=128
lavfi.signalstats.UAVG=128.33
lavfi.signalstats.UHIGH=129
lavfi.signalstats.UMAX=213
lavfi.signalstats.VMIN=47
lavfi.signalstats.VLOW=128
lavfi.signalstats.VAVG=130.201
lavfi.signalstats.VHIGH=133
lavfi.signalstats.VMAX=241
lavfi.signalstats.SATMIN=0
lavfi.signalstats.SATLOW=0
lavfi.signalstats.SATAVG=2.89961
lavfi.signalstats.SATHIGH=5
lavfi.signalstats.SATMAX=116
lavfi.signalstats.HUEMED=180
lavfi.signalstats.HUEAVG=192.068
lavfi.signalstats.YDIF=0.00650425
lavfi.signalstats.UDIF=0.00512188
lavfi.signalstats.VDIF=0.00750851
lavfi.signalstats.YBITDEPTH=8
lavfi.signalstats.UBITDEPTH=8
lavfi.signalstats.VBITDEPTH=8
frame:65   pts:9300    pts_time:1.55
lavfi.signalstats.YMIN=10
lavfi.signalstats.YLOW=16
lavfi.signalstats.YAVG=22.8286
lavfi.signalstats.YHIGH=29
lavfi.signalstats.YMAX=240
lavfi.signalstats.UMIN=39
lavfi.signalstats.ULOW=128
lavfi.signalstats.UAVG=128.33
lavfi.signalstats.UHIGH=129
lavfi.signalstats.UMAX=213
lavfi.signalstats.VMIN=47
lavfi.signalstats.VLOW=128
lavfi.signalstats.VAVG=130.2
lavfi.signalstats.VHIGH=133
lavfi.signalstats.VMAX=241
lavfi.signalstats.SATMIN=0
lavfi.signalstats.SATLOW=0
lavfi.signalstats.SATAVG=2.89867
lavfi.signalstats.SATHIGH=5
lavfi.signalstats.SATMAX=116
lavfi.signalstats.HUEMED=180
lavfi.signalstats.HUEAVG=192.032
lavfi.signalstats.YDIF=0.00275536
lavfi.signalstats.UDIF=0.00333593
lavfi.signalstats.VDIF=0.00382934
lavfi.signalstats.YBITDEPTH=8
lavfi.signalstats.UBITDEPTH=8
lavfi.signalstats.VBITDEPTH=8
frame:66   pts:9400    pts_time:1.566667
lavfi.signalstats.YMIN=10
lavfi.signalstats.YLOW=16
lavfi.signalstats.YAVG=22.8287
lavfi.signalstats.YHIGH=29
lavfi.signalstats.YMAX=240
lavfi.signalstats.UMIN=39
lavfi.signalstats.ULOW=128
lavfi.signalstats.UAVG=128.328
lavfi.signalstats.UHIGH=129
lavfi.signalstats.UMAX=213
lavfi.signalstats.VMIN=47
lavfi.signalstats.VLOW=128
lavfi.signalstats.VAVG=130.2
lavfi.signalstats.VHIGH=133
lavfi.signalstats.VMAX=241
lavfi.signalstats.SATMIN=0
lavfi.signalstats.SATLOW=0
lavfi.signalstats.SATAVG=2.89918
lavfi.signalstats.SATHIGH=5
lavfi.signalstats.SATMAX=116
lavfi.signalstats.HUEMED=180
lavfi.signalstats.HUEAVG=192.022
lavfi.signalstats.YDIF=0.00356654
lavfi.signalstats.UDIF=0.00246172
lavfi.signalstats.VDIF=0.00319112
lavfi.signalstats.YBITDEPTH=8
lavfi.signalstats.UBITDEPTH=8
lavfi.signalstats.VBITDEPTH=8
frame:67   pts:9500    pts_time:1.583333
lavfi.signalstats.YMIN=6
lavfi.signalstats.YLOW=16
lavfi.signalstats.YAVG=21.6832
lavfi.signalstats.YHIGH=25
lavfi.signalstats.YMAX=240
lavfi.signalstats.UMIN=39
lavfi.signalstats.ULOW=127
lavfi.signalstats.UAVG=128.025
lavfi.signalstats.UHIGH=129
lavfi.signalstats.UMAX=213
lavfi.signalstats.VMIN=47
lavfi.signalstats.VLOW=128
lavfi.signalstats.VAVG=130.519
lavfi.signalstats.VHIGH=134
lavfi.signalstats.VMAX=241
lavfi.signalstats.SATMIN=0
lavfi.signalstats.SATLOW=0
lavfi.signalstats.SATAVG=2.87217
lavfi.signalstats.SATHIGH=6
lavfi.signalstats.SATMAX=116
lavfi.signalstats.HUEMED=180
lavfi.signalstats.HUEAVG=183.9
lavfi.signalstats.YDIF=3.841
lavfi.signalstats.UDIF=0.668708
lavfi.signalstats.VDIF=1.69711
lavfi.signalstats.YBITDEPTH=8
lavfi.signalstats.UBITDEPTH=8
lavfi.signalstats.VBITDEPTH=8
frame:68   pts:9600    pts_time:1.6
lavfi.signalstats.YMIN=10
lavfi.signalstats.YLOW=16
lavfi.signalstats.YAVG=22.829
lavfi.signalstats.YHIGH=29
lavfi.signalstats.YMAX=240
lavfi.signalstats.UMIN=39
lavfi.signalstats.ULOW=128
lavfi.signalstats.UAVG=128.328
lavfi.signalstats.UHIGH=129
lavfi.signalstats.UMAX=213
lavfi.signalstats.VMIN=47
lavfi.signalstats.VLOW=128
lavfi.signalstats.VAVG=130.201
lavfi.signalstats.VHIGH=133
lavfi.signalstats.VMAX=241
lavfi.signalstats.SATMIN=0
lavfi.signalstats.SATLOW=0
lavfi.signalstats.SATAVG=2.89754
lavfi.signalstats.SATHIGH=5
lavfi.signalstats.SATMAX=116
lavfi.signalstats.HUEMED=180
lavfi.signalstats.HUEAVG=191.883
lavfi.signalstats.YDIF=3.83966
lavfi.signalstats.UDIF=0.665732
lavfi.signalstats.VDIF=1.69721
lavfi.signalstats.YBITDEPTH=8
lavfi.signalstats.UBITDEPTH=8
lavfi.signalstats.VBITDEPTH=8
frame:69   pts:9700    pts_time:1.616667
lavfi.signalstats.YMIN=10
lavfi.signalstats.YLOW=16
lavfi.signalstats.YAVG=22.8322
lavfi.signalstats.YHIGH=29
lavfi.signalstats.YMAX=240
lavfi.signalstats.UMIN=39
lavfi.signalstats.ULOW=128
lavfi.signalstats.UAVG=128.329
lavfi.signalstats.UHIGH=129
lavfi.signalstats.UMAX=213
lavfi.signalstats.VMIN=47
lavfi.signalstats.VLOW=128
lavfi.signalstats.VAVG=130.2
lavfi.signalstats.VHIGH=133
lavfi.signalstats.VMAX=241
lavfi.signalstats.SATMIN=0
lavfi.signalstats.SATLOW=0
lavfi.signalstats.SATAVG=2.89713
lavfi.signalstats.SATHIGH=5
lavfi.signalstats.SATMAX=116
lavfi.signalstats.HUEMED=180
lavfi.signalstats.HUEAVG=191.871
lavfi.signalstats.YDIF=0.00528948
lavfi.signalstats.UDIF=0.00335202
lavfi.signalstats.VDIF=0.00378107
lavfi.signalstats.YBITDEPTH=8
lavfi.signalstats.UBITDEPTH=8
lavfi.signalstats.VBITDEPTH=8
frame:70   pts:9800    pts_time:1.633333
lavfi.signalstats.YMIN=10
lavfi.signalstats.YLOW=16
lavfi.signalstats.YAVG=22.8305
lavfi.signalstats.YHIGH=29
lavfi.signalstats.YMAX=240
lavfi.signalstats.UMIN=39
lavfi.signalstats.ULOW=128
lavfi.signalstats.UAVG=128.329
lavfi.signalstats.UHIGH=129
lavfi.signalstats.UMAX=213
lavfi.signalstats.VMIN=47
lavfi.signalstats.VLOW=128
lavfi.signalstats.VAVG=130.203
lavfi.signalstats.VHIGH=133
lavfi.signalstats.VMAX=241
lavfi.signalstats.SATMIN=0
lavfi.signalstats.SATLOW=0
lavfi.signalstats.SATAVG=2.89917
lavfi.signalstats.SATHIGH=5
lavfi.signalstats.SATMAX=116
lavfi.signalstats.HUEMED=180
lavfi.signalstats.HUEAVG=191.899
lavfi.signalstats.YDIF=0.00805288
lavfi.signalstats.UDIF=0.00497171
lavfi.signalstats.VDIF=0.00669867
lavfi.signalstats.YBITDEPTH=8
lavfi.signalstats.UBITDEPTH=8
lavfi.signalstats.VBITDEPTH=8
frame:71   pts:9900    pts_time:1.65
lavfi.signalstats.YMIN=10
lavfi.signalstats.YLOW=16
lavfi.signalstats.YAVG=22.8314
lavfi.signalstats.YHIGH=29
lavfi.signalstats.YMAX=240
lavfi.signalstats.UMIN=39
lavfi.signalstats.ULOW=128
lavfi.signalstats.UAVG=128.33
lavfi.signalstats.UHIGH=129
lavfi.signalstats.UMAX=213
lavfi.signalstats.VMIN=47
lavfi.signalstats.VLOW=128
lavfi.signalstats.VAVG=130.202
lavfi.signalstats.VHIGH=133
lavfi.signalstats.VMAX=241
lavfi.signalstats.SATMIN=0
lavfi.signalstats.SATLOW=0
lavfi.signalstats.SATAVG=2.89873
lavfi.signalstats.SATHIGH=5
lavfi.signalstats.SATMAX=116
lavfi.signalstats.HUEMED=180
lavfi.signalstats.HUEAVG=191.869
lavfi.signalstats.YDIF=0.00323402
lavfi.signalstats.UDIF=0.00325548
lavfi.signalstats.VDIF=0.00466601
lavfi.signalstats.YBITDEPTH=8
lavfi.signalstats.UBITDEPTH=8
lavfi.signalstats.VBITDEPTH=8
frame:72   pts:10000   pts_time:1.666667
lavfi.signalstats.YMIN=2
lavfi.signalstats.YLOW=16
lavfi.signalstats.YAVG=21.6777
lavfi.signalstats.YHIGH=25
lavfi.signalstats.YMAX=240
lavfi.signalstats.UMIN=39
lavfi.signalstats.ULOW=127
lavfi.signalstats.UAVG=128.026
lavfi.signalstats.UHIGH=129
lavfi.signalstats.UMAX=213
lavfi.signalstats.VMIN=47
lavfi.signalstats.VLOW=128
lavfi.signalstats.VAVG=130.507
lavfi.signalstats.VHIGH=134
lavfi.signalstats.VMAX=241
lavfi.signalstats.SATMIN=0
lavfi.signalstats.SATLOW=0
lavfi.signalstats.SATAVG=2.86304
lavfi.signalstats.SATHIGH=6
lavfi.signalstats.SATMAX=116
lavfi.signalstats.HUEMED=180
lavfi.signalstats.HUEAVG=184.168
lavfi.signalstats.YDIF=3.83764
lavfi.signalstats.UDIF=0.666343
lavfi.signalstats.VDIF=1.68418
lavfi.signalstats.YBITDEPTH=8
lavfi.signalstats.UBITDEPTH=8
lavfi.signalstats.VBITDEPTH=8
frame:73   pts:10100   pts_time:1.683333
lavfi.signalstats.YMIN=10
lavfi.signalstats.YLOW=16
lavfi.signalstats.YAVG=22.8313
lavfi.signalstats.YHIGH=29
lavfi.signalstats.YMAX=240
lavfi.signalstats.UMIN=39
lavfi.signalstats.ULOW=128
lavfi.signalstats.UAVG=128.33
lavfi.signalstats.UHIGH=129
lavfi.signalstats.UMAX=213
lavfi.signalstats.VMIN=47
lavfi.signalstats.VLOW=128
lavfi.signalstats.VAVG=130.202
lavfi.signalstats.VHIGH=133
lavfi.signalstats.VMAX=241
lavfi.signalstats.SATMIN=0
lavfi.signalstats.SATLOW=0
lavfi.signalstats.SATAVG=2.89905
lavfi.signalstats.SATHIGH=5
lavfi.signalstats.SATMAX=116
lavfi.signalstats.HUEMED=180
lavfi.signalstats.HUEAVG=191.874
lavfi.signalstats.YDIF=3.83756
lavfi.signalstats.UDIF=0.666542
lavfi.signalstats.VDIF=1.68407
lavfi.signalstats.YBITDEPTH=8
lavfi.signalstats.UBITDEPTH=8
lavfi.signalstats.VBITDEPTH=8
frame:74   pts:10200   pts_time:1.7
lavfi.signalstats.YMIN=10
lavfi.signalstats.YLOW=16
lavfi.signalstats.YAVG=22.8303
lavfi.signalstats.YHIGH=29
lavfi.signalstats.YMAX=240
lavfi.signalstats.UMIN=39
lavfi.signalstats.ULOW=128
lavfi.signalstats.UAVG=128.329
lavfi.signalstats.UHIGH=129
lavfi.signalstats.UMAX=213
lavfi.signalstats.VMIN=47
lavfi.signalstats.VLOW=128
lavfi.signalstats.VAVG=130.201
lavfi.signalstats.VHIGH=133
lavfi.signalstats.VMAX=241
lavfi.signalstats.SATMIN=0
lavfi.signalstats.SATLOW=0
lavfi.signalstats.SATAVG=2.89851
lavfi.signalstats.SATHIGH=5
lavfi.signalstats.SATMAX=116
lavfi.signalstats.HUEMED=180
lavfi.signalstats.HUEAVG=191.869
lavfi.signalstats.YDIF=0.00239736
lavfi.signalstats.UDIF=0.00293905
lavfi.signalstats.VDIF=0.0026977
lavfi.signalstats.YBITDEPTH=8
lavfi.signalstats.UBITDEPTH=8
lavfi.signalstats.VBITDEPTH=8
frame:75   pts:10300   pts_time:1.716667
lavfi.signalstats.YMIN=10
lavfi.signalstats.YLOW=16
lavfi.signalstats.YAVG=22.8313
lavfi.signalstats.YHIGH=29
lavfi.signalstats.YMAX=240
lavfi.signalstats.UMIN=39
lavfi.signalstats.ULOW=128
lavfi.signalstats.UAVG=128.33
lavfi.signalstats.UHIGH=129
lavfi.signalstats.UMAX=213
lavfi.signalstats.VMIN=47
lavfi.signalstats.VLOW=128
lavfi.signalstats.VAVG=130.202
lavfi.signalstats.VHIGH=133
lavfi.signalstats.VMAX=241
lavfi.signalstats.SATMIN=0
lavfi.signalstats.SATLOW=0
lavfi.signalstats.SATAVG=2.89897
lavfi.signalstats.SATHIGH=5
lavfi.signalstats.SATMAX=116
lavfi.signalstats.HUEMED=180
lavfi.signalstats.HUEAVG=191.866
lavfi.signalstats.YDIF=0.00190126
lavfi.signalstats.UDIF=0.0026548
lavfi.signalstats.VDIF=0.00263334
lavfi.signalstats.YBITDEPTH=8
lavfi.signalstats.UBITDEPTH=8
lavfi.signalstats.VBITDEPTH=8
frame:76   pts:10400   pts_time:1.733333
lavfi.signalstats.YMIN=10
lavfi.signalstats.YLOW=16
lavfi.signalstats.YAVG=22.8302
lavfi.signalstats.YHIGH=29
lavfi.signalstats.YMAX=240
lavfi.signalstats.UMIN=39
lavfi.signalstats.ULOW=128
lavfi.signalstats.UAVG=128.329
lavfi.signalstats.UHIGH=129
lavfi.signalstats.UMAX=213
lavfi.signalstats.VMIN=47
lavfi.signalstats.VLOW=128
lavfi.signalstats.VAVG=130.201
lavfi.signalstats.VHIGH=133
lavfi.signalstats.VMAX=241
lavfi.signalstats.SATMIN=0
lavfi.signalstats.SATLOW=0
lavfi.signalstats.SATAVG=2.89827
lavfi.signalstats.SATHIGH=5
lavfi.signalstats.SATMAX=116
lavfi.signalstats.HUEMED=180
lavfi.signalstats.HUEAVG=191.87
lavfi.signalstats.YDIF=0.00213724
lavfi.signalstats.UDIF=0.002392
lavfi.signalstats.VDIF=0.00245636
lavfi.signalstats.YBITDEPTH=8
lavfi.signalstats.UBITDEPTH=8
lavfi.signalstats.VBITDEPTH=8
frame:77   pts:10500   pts_time:1.75
lavfi.signalstats.YMIN=10
lavfi.signalstats.YLOW=16
lavfi.signalstats.YAVG=22.8314
lavfi.signalstats.YHIGH=29
lavfi.signalstats.YMAX=240
lavfi.signalstats.UMIN=39
lavfi.signalstats.ULOW=128
lavfi.signalstats.UAVG=128.33
lavfi.signalstats.UHIGH=129
lavfi.signalstats.UMAX=213
lavfi.signalstats.VMIN=47
lavfi.signalstats.VLOW=128
lavfi.signalstats.VAVG=130.202
lavfi.signalstats.VHIGH=133
lavfi.signalstats.VMAX=241
lavfi.signalstats.SATMIN=0
lavfi.signalstats.SATLOW=0
lavfi.signalstats.SATAVG=2.89894
lavfi.signalstats.SATHIGH=5
lavfi.signalstats.SATMAX=116
lavfi.signalstats.HUEMED=180
lavfi.signalstats.HUEAVG=191.878
lavfi.signalstats.YDIF=0.00187847
lavfi.signalstats.UDIF=0.00235446
lavfi.signalstats.VDIF=0.00226864
lavfi.signalstats.YBITDEPTH=8
lavfi.signalstats.UBITDEPTH=8
lavfi.signalstats.VBITDEPTH=8
frame:78   pts:10600   pts_time:1.766667
lavfi.signalstats.YMIN=8
lavfi.signalstats.YLOW=16
lavfi.signalstats.YAVG=22.8265
lavfi.signalstats.YHIGH=29
lavfi.signalstats.YMAX=240
lavfi.signalstats.UMIN=33
lavfi.signalstats.ULOW=128
lavfi.signalstats.UAVG=128.333
lavfi.signalstats.UHIGH=129
lavfi.signalstats.UMAX=213
lavfi.signalstats.VMIN=48
lavfi.signalstats.VLOW=128
lavfi.signalstats.VAVG=130.2
lavfi.signalstats.VHIGH=133
lavfi.signalstats.VMAX=239
lavfi.signalstats.SATMIN=0
lavfi.signalstats.SATLOW=0
lavfi.signalstats.SATAVG=2.90349
lavfi.signalstats.SATHIGH=5
lavfi.signalstats.SATMAX=111
lavfi.signalstats.HUEMED=180
lavfi.signalstats.HUEAVG=191.763
lavfi.signalstats.YDIF=0.129857
lavfi.signalstats.UDIF=0.0814137
lavfi.signalstats.VDIF=0.124389
lavfi.signalstats.YBITDEPTH=8
lavfi.signalstats.UBITDEPTH=8
lavfi.signalstats.VBITDEPTH=8
frame:79   pts:10700   pts_time:1.783333
lavfi.signalstats.YMIN=8
lavfi.signalstats.YLOW=16
lavfi.signalstats.YAVG=22.829
lavfi.signalstats.YHIGH=29
lavfi.signalstats.YMAX=240
lavfi.signalstats.UMIN=33
lavfi.signalstats.ULOW=128
lavfi.signalstats.UAVG=128.331
lavfi.signalstats.UHIGH=129
lavfi.signalstats.UMAX=213
lavfi.signalstats.VMIN=50
lavfi.signalstats.VLOW=128
lavfi.signalstats.VAVG=130.201
lavfi.signalstats.VHIGH=133
lavfi.signalstats.VMAX=239
lavfi.signalstats.SATMIN=0
lavfi.signalstats.SATLOW=0
lavfi.signalstats.SATAVG=2.90324
lavfi.signalstats.SATHIGH=5
lavfi.signalstats.SATMAX=111
lavfi.signalstats.HUEMED=180
lavfi.signalstats.HUEAVG=191.565
lavfi.signalstats.YDIF=0.0268376
lavfi.signalstats.UDIF=0.00964844
lavfi.signalstats.VDIF=0.0199887
lavfi.signalstats.YBITDEPTH=8
lavfi.signalstats.UBITDEPTH=8
lavfi.signalstats.VBITDEPTH=8
frame:80   pts:10800   pts_time:1.8
lavfi.signalstats.YMIN=8
lavfi.signalstats.YLOW=16
lavfi.signalstats.YAVG=22.8282
lavfi.signalstats.YHIGH=29
lavfi.signalstats.YMAX=240
lavfi.signalstats.UMIN=33
lavfi.signalstats.ULOW=128
lavfi.signalstats.UAVG=128.333
lavfi.signalstats.UHIGH=129
lavfi.signalstats.UMAX=213
lavfi.signalstats.VMIN=50
lavfi.signalstats.VLOW=128
lavfi.signalstats.VAVG=130.201
lavfi.signalstats.VHIGH=133
lavfi.signalstats.VMAX=239
lavfi.signalstats.SATMIN=0
lavfi.signalstats.SATLOW=0
lavfi.signalstats.SATAVG=2.90528
lavfi.signalstats.SATHIGH=5
lavfi.signalstats.SATMAX=111
lavfi.signalstats.HUEMED=180
lavfi.signalstats.HUEAVG=191.808
lavfi.signalstats.YDIF=0.0100775
lavfi.signalstats.UDIF=0.00833445
lavfi.signalstats.VDIF=0.0149902
lavfi.signalstats.YBITDEPTH=8
lavfi.signalstats.UBITDEPTH=8
lavfi.signalstats.VBITDEPTH=8
frame:81   pts:10900   pts_time:1.816667
lavfi.signalstats.YMIN=8
lavfi.signalstats.YLOW=16
lavfi.signalstats.YAVG=22.8286
lavfi.signalstats.YHIGH=29
lavfi.signalstats.YMAX=240
lavfi.signalstats.UMIN=33
lavfi.signalstats.ULOW=128
lavfi.signalstats.UAVG=128.331
lavfi.signalstats.UHIGH=129
lavfi.signalstats.UMAX=213
lavfi.signalstats.VMIN=50
lavfi.signalstats.VLOW=128
lavfi.signalstats.VAVG=130.198
lavfi.signalstats.VHIGH=133
lavfi.signalstats.VMAX=239
lavfi.signalstats.SATMIN=0
lavfi.signalstats.SATLOW=0
lavfi.signalstats.SATAVG=2.90032
lavfi.signalstats.SATHIGH=5
lavfi.signalstats.SATMAX=111
lavfi.signalstats.HUEMED=180
lavfi.signalstats.HUEAVG=191.62
lavfi.signalstats.YDIF=0.00855032
lavfi.signalstats.UDIF=0.00715454
lavfi.signalstats.VDIF=0.0139873
lavfi.signalstats.YBITDEPTH=8
lavfi.signalstats.UBITDEPTH=8
lavfi.signalstats.VBITDEPTH=8
frame:82   pts:11000   pts_time:1.833333
lavfi.signalstats.YMIN=8
lavfi.signalstats.YLOW=16
lavfi.signalstats.YAVG=22.8294
lavfi.signalstats.YHIGH=29
lavfi.signalstats.YMAX=240
lavfi.signalstats.UMIN=33
lavfi.signalstats.ULOW=128
lavfi.signalstats.UAVG=128.334
lavfi.signalstats.UHIGH=129
lavfi.signalstats.UMAX=213
lavfi.signalstats.VMIN=50
lavfi.signalstats.VLOW=128
lavfi.signalstats.VAVG=130.202
lavfi.signalstats.VHIGH=133
lavfi.signalstats.VMAX=239
lavfi.signalstats.SATMIN=0
lavfi.signalstats.SATLOW=0
lavfi.signalstats.SATAVG=2.90593
lavfi.signalstats.SATHIGH=5
lavfi.signalstats.SATMAX=111
lavfi.signalstats.HUEMED=180
lavfi.signalstats.HUEAVG=191.83
lavfi.signalstats.YDIF=0.00481618
lavfi.signalstats.UDIF=0.00558312
lavfi.signalstats.VDIF=0.011295
lavfi.signalstats.YBITDEPTH=8
lavfi.signalstats.UBITDEPTH=8
lavfi.signalstats.VBITDEPTH=8
frame:83   pts:11100   pts_time:1.85
lavfi.signalstats.YMIN=8
lavfi.signalstats.YLOW=16
lavfi.signalstats.YAVG=22.8287
lavfi.signalstats.YHIGH=29
lavfi.signalstats.YMAX=240
lavfi.signalstats.UMIN=33
lavfi.signalstats.ULOW=128
lavfi.signalstats.UAVG=128.327
lavfi.signalstats.UHIGH=129
lavfi.signalstats.UMAX=213
lavfi.signalstats.VMIN=50
lavfi.signalstats.VLOW=128
lavfi.signalstats.VAVG=130.2
lavfi.signalstats.VHIGH=133
lavfi.signalstats.VMAX=239
lavfi.signalstats.SATMIN=0
lavfi.signalstats.SATLOW=0
lavfi.signalstats.SATAVG=2.90338
lavfi.signalstats.SATHIGH=5
lavfi.signalstats.SATMAX=111
lavfi.signalstats.HUEMED=180
lavfi.signalstats.HUEAVG=191.44
lavfi.signalstats.YDIF=0.0114438
lavfi.signalstats.UDIF=0.0103349
lavfi.signalstats.VDIF=0.0200531
lavfi.signalstats.YBITDEPTH=8
lavfi.signalstats.UBITDEPTH=8
lavfi.signalstats.VBITDEPTH=8
frame:84   pts:11200   pts_time:1.866667
lavfi.signalstats.YMIN=6
lavfi.signalstats.YLOW=16
lavfi.signalstats.YAVG=21.6817
lavfi.signalstats.YHIGH=25
lavfi.signalstats.YMAX=240
lavfi.signalstats.UMIN=33
lavfi.signalstats.ULOW=127
lavfi.signalstats.UAVG=128.028
lavfi.signalstats.UHIGH=129
lavfi.signalstats.UMAX=213
lavfi.signalstats.VMIN=49
lavfi.signalstats.VLOW=128
lavfi.signalstats.VAVG=130.512
lavfi.signalstats.VHIGH=134
lavfi.signalstats.VMAX=239
lavfi.signalstats.SATMIN=0
lavfi.signalstats.SATLOW=0
lavfi.signalstats.SATAVG=2.86756
lavfi.signalstats.SATHIGH=6
lavfi.signalstats.SATMAX=111
lavfi.signalstats.HUEMED=180
lavfi.signalstats.HUEAVG=183.848
lavfi.signalstats.YDIF=3.84652
lavfi.signalstats.UDIF=0.661495
lavfi.signalstats.VDIF=1.69497
lavfi.signalstats.YBITDEPTH=8
lavfi.signalstats.UBITDEPTH=8
lavfi.signalstats.VBITDEPTH=8
frame:85   pts:11300   pts_time:1.883333
lavfi.signalstats.YMIN=8
lavfi.signalstats.YLOW=16
lavfi.signalstats.YAVG=22.8268
lavfi.signalstats.YHIGH=29
lavfi.signalstats.YMAX=240
lavfi.signalstats.UMIN=33
lavfi.signalstats.ULOW=128
lavfi.signalstats.UAVG=128.331
lavfi.signalstats.UHIGH=129
lavfi.signalstats.UMAX=213
lavfi.signalstats.VMIN=49
lavfi.signalstats.VLOW=128
lavfi.signalstats.VAVG=130.208
lavfi.signalstats.VHIGH=133
lavfi.signalstats.VMAX=239
lavfi.signalstats.SATMIN=0
lavfi.signalstats.SATLOW=0
lavfi.signalstats.SATAVG=2.90607
lavfi.signalstats.SATHIGH=5
lavfi.signalstats.SATMAX=111
lavfi.signalstats.HUEMED=180
lavfi.signalstats.HUEAVG=192.218
lavfi.signalstats.YDIF=3.84599
lavfi.signalstats.UDIF=0.661607
lavfi.signalstats.VDIF=1.70745
lavfi.signalstats.YBITDEPTH=8
lavfi.signalstats.UBITDEPTH=8
lavfi.signalstats.VBITDEPTH=8
frame:86   pts:11400   pts_time:1.9
lavfi.signalstats.YMIN=8
lavfi.signalstats.YLOW=16
lavfi.signalstats.YAVG=22.8263
lavfi.signalstats.YHIGH=29
lavfi.signalstats.YMAX=240
lavfi.signalstats.UMIN=33
lavfi.signalstats.ULOW=128
lavfi.signalstats.UAVG=128.331
lavfi.signalstats.UHIGH=129
lavfi.signalstats.UMAX=213
lavfi.signalstats.VMIN=49
lavfi.signalstats.VLOW=128
lavfi.signalstats.VAVG=130.198
lavfi.signalstats.VHIGH=133
lavfi.signalstats.VMAX=239
lavfi.signalstats.SATMIN=0
lavfi.signalstats.SATLOW=0
lavfi.signalstats.SATAVG=2.89769
lavfi.signalstats.SATHIGH=5
lavfi.signalstats.SATMAX=111
lavfi.signalstats.HUEMED=180
lavfi.signalstats.HUEAVG=192.187
lavfi.signalstats.YDIF=0.0072189
lavfi.signalstats.UDIF=0.00264407
lavfi.signalstats.VDIF=0.0235606
lavfi.signalstats.YBITDEPTH=8
lavfi.signalstats.UBITDEPTH=8
lavfi.signalstats.VBITDEPTH=8
frame:87   pts:11500   pts_time:1.916667
lavfi.signalstats.YMIN=8
lavfi.signalstats.YLOW=16
lavfi.signalstats.YAVG=22.8281
lavfi.signalstats.YHIGH=29
lavfi.signalstats.YMAX=240
lavfi.signalstats.UMIN=33
lavfi.signalstats.ULOW=128
lavfi.signalstats.UAVG=128.334
lavfi.signalstats.UHIGH=129
lavfi.signalstats.UMAX=213
lavfi.signalstats.VMIN=49
lavfi.signalstats.VLOW=128
lavfi.signalstats.VAVG=130.207
lavfi.signalstats.VHIGH=133
lavfi.signalstats.VMAX=239
lavfi.signalstats.SATMIN=0
lavfi.signalstats.SATLOW=0
lavfi.signalstats.SATAVG=2.90638
lavfi.signalstats.SATHIGH=5
lavfi.signalstats.SATMAX=111
lavfi.signalstats.HUEMED=180
lavfi.signalstats.HUEAVG=192.257
lavfi.signalstats.YDIF=0.00796171
lavfi.signalstats.UDIF=0.00490199
lavfi.signalstats.VDIF=0.0179507
lavfi.signalstats.YBITDEPTH=8
lavfi.signalstats.UBITDEPTH=8
lavfi.signalstats.VBITDEPTH=8
frame:88   pts:11600   pts_time:1.933333
lavfi.signalstats.YMIN=8
lavfi.signalstats.YLOW=16
lavfi.signalstats.YAVG=22.8287
lavfi.signalstats.YHIGH=29
lavfi.signalstats.YMAX=240
lavfi.signalstats.UMIN=33
lavfi.signalstats.ULOW=128
lavfi.signalstats.UAVG=128.333
lavfi.signalstats.UHIGH=129
lavfi.signalstats.UMAX=213
lavfi.signalstats.VMIN=49
lavfi.signalstats.VLOW=128
lavfi.signalstats.VAVG=130.207
lavfi.signalstats.VHIGH=133
lavfi.signalstats.VMAX=239
lavfi.signalstats.SATMIN=0
lavfi.signalstats.SATLOW=0
lavfi.signalstats.SATAVG=2.90574
lavfi.signalstats.SATHIGH=5
lavfi.signalstats.SATMAX=111
lavfi.signalstats.HUEMED=180
lavfi.signalstats.HUEAVG=192.161
lavfi.signalstats.YDIF=0.00318978
lavfi.signalstats.UDIF=0.00200585
lavfi.signalstats.VDIF=0.00846853
lavfi.signalstats.YBITDEPTH=8
lavfi.signalstats.UBITDEPTH=8
lavfi.signalstats.VBITDEPTH=8
frame:89   pts:11700   pts_time:1.95
lavfi.signalstats.YMIN=8
lavfi.signalstats.YLOW=16
lavfi.signalstats.YAVG=22.8278
lavfi.signalstats.YHIGH=29
lavfi.signalstats.YMAX=240
lavfi.signalstats.UMIN=33
lavfi.signalstats.ULOW=128
lavfi.signalstats.UAVG=128.333
lavfi.signalstats.UHIGH=129
lavfi.signalstats.UMAX=213
lavfi.signalstats.VMIN=49
lavfi.signalstats.VLOW=128
lavfi.signalstats.VAVG=130.206
lavfi.signalstats.VHIGH=133
lavfi.signalstats.VMAX=239
lavfi.signalstats.SATMIN=0
lavfi.signalstats.SATLOW=0
lavfi.signalstats.SATAVG=2.9051
lavfi.signalstats.SATHIGH=5
lavfi.signalstats.SATMAX=111
lavfi.signalstats.HUEMED=180
lavfi.signalstats.HUEAVG=192.204
lavfi.signalstats.YDIF=0.00251133
lavfi.signalstats.UDIF=0.00118527
lavfi.signalstats.VDIF=0.00600681
lavfi.signalstats.YBITDEPTH=8
lavfi.signalstats.UBITDEPTH=8
lavfi.signalstats.VBITDEPTH=8
frame:90   pts:11800   pts_time:1.966667
lavfi.signalstats.YMIN=8
lavfi.signalstats.YLOW=16
lavfi.signalstats.YAVG=22.8288
lavfi.signalstats.YHIGH=29
lavfi.signalstats.YMAX=240
lavfi.signalstats.UMIN=33
lavfi.signalstats.ULOW=128
lavfi.signalstats.UAVG=128.333
lavfi.signalstats.UHIGH=129
lavfi.signalstats.UMAX=213
lavfi.signalstats.VMIN=49
lavfi.signalstats.VLOW=128
lavfi.signalstats.VAVG=130.208
lavfi.signalstats.VHIGH=133
lavfi.signalstats.VMAX=239
lavfi.signalstats.SATMIN=0
lavfi.signalstats.SATLOW=0
lavfi.signalstats.SATAVG=2.90604
lavfi.signalstats.SATHIGH=5
lavfi.signalstats.SATMAX=111
lavfi.signalstats.HUEMED=180
lavfi.signalstats.HUEAVG=192.198
lavfi.signalstats.YDIF=0.00204205
lavfi.signalstats.UDIF=0.00112091
lavfi.signalstats.VDIF=0.00463383
lavfi.signalstats.YBITDEPTH=8
lavfi.signalstats.UBITDEPTH=8
lavfi.signalstats.VBITDEPTH=8
frame:91   pts:11900   pts_time:1.983333
lavfi.signalstats.YMIN=8
lavfi.signalstats.YLOW=16
lavfi.signalstats.YAVG=22.8275
lavfi.signalstats.YHIGH=29
lavfi.signalstats.YMAX=240
lavfi.signalstats.UMIN=33
lavfi.signalstats.ULOW=128
lavfi.signalstats.UAVG=128.333
lavfi.signalstats.UHIGH=129
lavfi.signalstats.UMAX=213
lavfi.signalstats.VMIN=49
lavfi.signalstats.VLOW=128
lavfi.signalstats.VAVG=130.206
lavfi.signalstats.VHIGH=133
lavfi.signalstats.VMAX=239
lavfi.signalstats.SATMIN=0
lavfi.signalstats.SATLOW=0
lavfi.signalstats.SATAVG=2.90465
lavfi.signalstats.SATHIGH=5
lavfi.signalstats.SATMAX=111
lavfi.signalstats.HUEMED=180
lavfi.signalstats.HUEAVG=192.2
lavfi.signalstats.YDIF=0.00203266
lavfi.signalstats.UDIF=0.000954654
lavfi.signalstats.VDIF=0.00419404
lavfi.signalstats.YBITDEPTH=8
lavfi.signalstats.UBITDEPTH=8
lavfi.signalstats.VBITDEPTH=8
frame:92   pts:12000   pts_time:2
lavfi.signalstats.YMIN=8
lavfi.signalstats.YLOW=16
lavfi.signalstats.YAVG=22.8287
lavfi.signalstats.YHIGH=29
lavfi.signalstats.YMAX=240
lavfi.signalstats.UMIN=33
lavfi.signalstats.ULOW=128
lavfi.signalstats.UAVG=128.333
lavfi.signalstats.UHIGH=129
lavfi.signalstats.UMAX=213
lavfi.signalstats.VMIN=49
lavfi.signalstats.VLOW=128
lavfi.signalstats.VAVG=130.208
lavfi.signalstats.VHIGH=133
lavfi.signalstats.VMAX=239
lavfi.signalstats.SATMIN=0
lavfi.signalstats.SATLOW=0
lavfi.signalstats.SATAVG=2.90609
lavfi.signalstats.SATHIGH=5
lavfi.signalstats.SATMAX=111
lavfi.signalstats.HUEMED=180
lavfi.signalstats.HUEAVG=192.199
lavfi.signalstats.YDIF=0.00190126
lavfi.signalstats.UDIF=0.000825937
lavfi.signalstats.VDIF=0.00404387
lavfi.signalstats.YBITDEPTH=8
lavfi.signalstats.UBITDEPTH=8
lavfi.signalstats.VBITDEPTH=8
frame:93   pts:12100   pts_time:2.016667
lavfi.signalstats.YMIN=6
lavfi.signalstats.YLOW=16
lavfi.signalstats.YAVG=21.6791
lavfi.signalstats.YHIGH=25
lavfi.signalstats.YMAX=240
lavfi.signalstats.UMIN=33
lavfi.signalstats.ULOW=127
lavfi.signalstats.UAVG=128.029
lavfi.signalstats.UHIGH=129
lavfi.signalstats.UMAX=213
lavfi.signalstats.VMIN=49
lavfi.signalstats.VLOW=128
lavfi.signalstats.VAVG=130.525
lavfi.signalstats.VHIGH=134
lavfi.signalstats.VMAX=239
lavfi.signalstats.SATMIN=0
lavfi.signalstats.SATLOW=0
lavfi.signalstats.SATAVG=2.87932
lavfi.signalstats.SATHIGH=6
lavfi.signalstats.SATMAX=111
lavfi.signalstats.HUEMED=180
lavfi.signalstats.HUEAVG=183.848
lavfi.signalstats.YDIF=3.83793
lavfi.signalstats.UDIF=0.659087
lavfi.signalstats.VDIF=1.69879
lavfi.signalstats.YBITDEPTH=8
lavfi.signalstats.UBITDEPTH=8
lavfi.signalstats.VBITDEPTH=8
frame:94   pts:12200   pts_time:2.033333
lavfi.signalstats.YMIN=6
lavfi.signalstats.YLOW=16
lavfi.signalstats.YAVG=21.6813
lavfi.signalstats.YHIGH=25
lavfi.signalstats.YMAX=240
lavfi.signalstats.UMIN=33
lavfi.signalstats.ULOW=127
lavfi.signalstats.UAVG=128.034
lavfi.signalstats.UHIGH=129
lavfi.signalstats.UMAX=213
lavfi.signalstats.VMIN=49
lavfi.signalstats.VLOW=128
lavfi.signalstats.VAVG=130.527
lavfi.signalstats.VHIGH=134
lavfi.signalstats.VMAX=239
lavfi.signalstats.SATMIN=0
lavfi.signalstats.SATLOW=0
lavfi.signalstats.SATAVG=2.88207
lavfi.signalstats.SATHIGH=6
lavfi.signalstats.SATMAX=111
lavfi.signalstats.HUEMED=180
lavfi.signalstats.HUEAVG=184.138
lavfi.signalstats.YDIF=0.00558982
lavfi.signalstats.UDIF=0.00950363
lavfi.signalstats.VDIF=0.00692392
lavfi.signalstats.YBITDEPTH=8
lavfi.signalstats.UBITDEPTH=8
lavfi.signalstats.VBITDEPTH=8
frame:95   pts:12300   pts_time:2.05
lavfi.signalstats.YMIN=8
lavfi.signalstats.YLOW=16
lavfi.signalstats.YAVG=22.8264
lavfi.signalstats.YHIGH=29
lavfi.signalstats.YMAX=240
lavfi.signalstats.UMIN=33
lavfi.signalstats.ULOW=128
lavfi.signalstats.UAVG=128.336
lavfi.signalstats.UHIGH=129
lavfi.signalstats.UMAX=213
lavfi.signalstats.VMIN=49
lavfi.signalstats.VLOW=128
lavfi.signalstats.VAVG=130.21
lavfi.signalstats.VHIGH=133
lavfi.signalstats.VMAX=239
lavfi.signalstats.SATMIN=0
lavfi.signalstats.SATLOW=0
lavfi.signalstats.SATAVG=2.91056
lavfi.signalstats.SATHIGH=5
lavfi.signalstats.SATMAX=111
lavfi.signalstats.HUEMED=180
lavfi.signalstats.HUEAVG=192.085
lavfi.signalstats.YDIF=3.83955
lavfi.signalstats.UDIF=0.663935
lavfi.signalstats.VDIF=1.6979
lavfi.signalstats.YBITDEPTH=8
lavfi.signalstats.UBITDEPTH=8
lavfi.signalstats.VBITDEPTH=8
frame:96   pts:12400   pts_time:2.066667
lavfi.signalstats.YMIN=8
lavfi.signalstats.YLOW=16
lavfi.signalstats.YAVG=22.8293
lavfi.signalstats.YHIGH=29
lavfi.signalstats.YMAX=240
lavfi.signalstats.UMIN=33
lavfi.signalstats.ULOW=128
lavfi.signalstats.UAVG=128.335
lavfi.signalstats.UHIGH=129
lavfi.signalstats.UMAX=213
lavfi.signalstats.VMIN=49
lavfi.signalstats.VLOW=128
lavfi.signalstats.VAVG=130.211
lavfi.signalstats.VHIGH=133
lavfi.signalstats.VMAX=239
lavfi.signalstats.SATMIN=0
lavfi.signalstats.SATLOW=0
lavfi.signalstats.SATAVG=2.91219
lavfi.signalstats.SATHIGH=5
lavfi.signalstats.SATMAX=111
lavfi.signalstats.HUEMED=180
lavfi.signalstats.HUEAVG=192.055
lavfi.signalstats.YDIF=0.00464187
lavfi.signalstats.UDIF=0.00189322
lavfi.signalstats.VDIF=0.00682738
lavfi.signalstats.YBITDEPTH=8
lavfi.signalstats.UBITDEPTH=8
lavfi.signalstats.VBITDEPTH=8
frame:97   pts:12500   pts_time:2.083333
lavfi.signalstats.YMIN=8
lavfi.signalstats.YLOW=16
lavfi.signalstats.YAVG=22.8252
lavfi.signalstats.YHIGH=29
lavfi.signalstats.YMAX=240
lavfi.signalstats.UMIN=33
lavfi.signalstats.ULOW=128
lavfi.signalstats.UAVG=128.336
lavfi.signalstats.UHIGH=129
lavfi.signalstats.UMAX=213
lavfi.signalstats.VMIN=49
lavfi.signalstats.VLOW=128
lavfi.signalstats.VAVG=130.211
lavfi.signalstats.VHIGH=133
lavfi.signalstats.VMAX=239
lavfi.signalstats.SATMIN=0
lavfi.signalstats.SATLOW=0
lavfi.signalstats.SATAVG=2.91076
lavfi.signalstats.SATHIGH=5
lavfi.signalstats.SATMAX=111
lavfi.signalstats.HUEMED=180
lavfi.signalstats.HUEAVG=192.116
lavfi.signalstats.YDIF=0.0123488
lavfi.signalstats.UDIF=0.0121584
lavfi.signalstats.VDIF=0.0194202
lavfi.signalstats.YBITDEPTH=8
lavfi.signalstats.UBITDEPTH=8
lavfi.signalstats.VBITDEPTH=8
frame:98   pts:12600   pts_time:2.1
lavfi.signalstats.YMIN=8
lavfi.signalstats.YLOW=16
lavfi.signalstats.YAVG=22.8266
lavfi.signalstats.YHIGH=29
lavfi.signalstats.YMAX=240
lavfi.signalstats.UMIN=33
lavfi.signalstats.ULOW=128
lavfi.signalstats.UAVG=128.334
lavfi.signalstats.UHIGH=129
lavfi.signalstats.UMAX=213
lavfi.signalstats.VMIN=49
lavfi.signalstats.VLOW=128
lavfi.signalstats.VAVG=130.208
lavfi.signalstats.VHIGH=133
lavfi.signalstats.VMAX=239
lavfi.signalstats.SATMIN=0
lavfi.signalstats.SATLOW=0
lavfi.signalstats.SATAVG=2.90881
lavfi.signalstats.SATHIGH=5
lavfi.signalstats.SATMAX=111
lavfi.signalstats.HUEMED=180
lavfi.signalstats.HUEAVG=192.005
lavfi.signalstats.YDIF=0.00500389
lavfi.signalstats.UDIF=0.00647341
lavfi.signalstats.VDIF=0.0142018
lavfi.signalstats.YBITDEPTH=8
lavfi.signalstats.UBITDEPTH=8
lavfi.signalstats.VBITDEPTH=8
frame:99   pts:12700   pts_time:2.116667
lavfi.signalstats.YMIN=8
lavfi.signalstats.YLOW=16
lavfi.signalstats.YAVG=22.8245
lavfi.signalstats.YHIGH=29
lavfi.signalstats.YMAX=240
lavfi.signalstats.UMIN=33
lavfi.signalstats.ULOW=128
lavfi.signalstats.UAVG=128.335
lavfi.signalstats.UHIGH=129
lavfi.signalstats.UMAX=213
lavfi.signalstats.VMIN=49
lavfi.signalstats.VLOW=128
lavfi.signalstats.VAVG=130.207
lavfi.signalstats.VHIGH=133
lavfi.signalstats.VMAX=239
lavfi.signalstats.SATMIN=0
lavfi.signalstats.SATLOW=0
lavfi.signalstats.SATAVG=2.9088
lavfi.signalstats.SATHIGH=5
lavfi.signalstats.SATMAX=111
lavfi.signalstats.HUEMED=180
lavfi.signalstats.HUEAVG=191.974
lavfi.signalstats.YDIF=0.0147569
lavfi.signalstats.UDIF=0.0112252
lavfi.signalstats.VDIF=0.0218551
lavfi.signalstats.YBITDEPTH=8
lavfi.signalstats.UBITDEPTH=8
lavfi.signalstats.VBITDEPTH=8
frame:100  pts:12800   pts_time:2.133333
lavfi.signalstats.YMIN=8
lavfi.signalstats.YLOW=16
lavfi.signalstats.YAVG=22.8278
lavfi.signalstats.YHIGH=29
lavfi.signalstats.YMAX=240
lavfi.signalstats.UMIN=33
lavfi.signalstats.ULOW=128
lavfi.signalstats.UAVG=128.333
lavfi.signalstats.UHIGH=129
lavfi.signalstats.UMAX=213
lavfi.signalstats.VMIN=49
lavfi.signalstats.VLOW=128
lavfi.signalstats.VAVG=130.206
lavfi.signalstats.VHIGH=133
lavfi.signalstats.VMAX=239
lavfi.signalstats.SATMIN=0
lavfi.signalstats.SATLOW=0
lavfi.signalstats.SATAVG=2.90763
lavfi.signalstats.SATHIGH=5
lavfi.signalstats.SATMAX=111
lavfi.signalstats.HUEMED=180
lavfi.signalstats.HUEAVG=192.014
lavfi.signalstats.YDIF=0.00815344
lavfi.signalstats.UDIF=0.00790539
lavfi.signalstats.VDIF=0.0151887
lavfi.signalstats.YBITDEPTH=8
lavfi.signalstats.UBITDEPTH=8
lavfi.signalstats.VBITDEPTH=8
frame:101  pts:12900   pts_time:2.15
lavfi.signalstats.YMIN=8
lavfi.signalstats.YLOW=16
lavfi.signalstats.YAVG=22.8273
lavfi.signalstats.YHIGH=29
lavfi.signalstats.YMAX=239
lavfi.signalstats.UMIN=35
lavfi.signalstats.ULOW=128
lavfi.signalstats.UAVG=128.331
lavfi.signalstats.UHIGH=129
lavfi.signalstats.UMAX=212
lavfi.signalstats.VMIN=49
lavfi.signalstats.VLOW=128
lavfi.signalstats.VAVG=130.205
lavfi.signalstats.VHIGH=133
lavfi.signalstats.VMAX=239
lavfi.signalstats.SATMIN=0
lavfi.signalstats.SATLOW=0
lavfi.signalstats.SATAVG=2.90613
lavfi.signalstats.SATHIGH=5
lavfi.signalstats.SATMAX=111
lavfi.signalstats.HUEMED=180
lavfi.signalstats.HUEAVG=191.996
lavfi.signalstats.YDIF=0.0352498
lavfi.signalstats.UDIF=0.0180473
lavfi.signalstats.VDIF=0.0331823
lavfi.signalstats.YBITDEPTH=8
lavfi.signalstats.UBITDEPTH=8
lavfi.signalstats.VBITDEPTH=8
frame:102  pts:13000   pts_time:2.166667
lavfi.signalstats.YMIN=8
lavfi.signalstats.YLOW=16
lavfi.signalstats.YAVG=22.8281
lavfi.signalstats.YHIGH=29
lavfi.signalstats.YMAX=239
lavfi.signalstats.UMIN=35
lavfi.signalstats.ULOW=127
lavfi.signalstats.UAVG=128.328
lavfi.signalstats.UHIGH=129
lavfi.signalstats.UMAX=212
lavfi.signalstats.VMIN=49
lavfi.signalstats.VLOW=128
lavfi.signalstats.VAVG=130.194
lavfi.signalstats.VHIGH=133
lavfi.signalstats.VMAX=239
lavfi.signalstats.SATMIN=0
lavfi.signalstats.SATLOW=0
lavfi.signalstats.SATAVG=2.89707
lavfi.signalstats.SATHIGH=5
lavfi.signalstats.SATMAX=111
lavfi.signalstats.HUEMED=180
lavfi.signalstats.HUEAVG=191.593
lavfi.signalstats.YDIF=0.00798718
lavfi.signalstats.UDIF=0.00795366
lavfi.signalstats.VDIF=0.0200745
lavfi.signalstats.YBITDEPTH=8
lavfi.signalstats.UBITDEPTH=8
lavfi.signalstats.VBITDEPTH=8
frame:103  pts:13100   pts_time:2.183333
lavfi.signalstats.YMIN=8
lavfi.signalstats.YLOW=16
lavfi.signalstats.YAVG=22.8269
lavfi.signalstats.YHIGH=29
lavfi.signalstats.YMAX=239
lavfi.signalstats.UMIN=35
lavfi.signalstats.ULOW=128
lavfi.signalstats.UAVG=128.329
lavfi.signalstats.UHIGH=129
lavfi.signalstats.UMAX=212
lavfi.signalstats.VMIN=49
lavfi.signalstats.VLOW=128
lavfi.signalstats.VAVG=130.196
lavfi.signalstats.VHIGH=133
lavfi.signalstats.VMAX=239
lavfi.signalstats.SATMIN=0
lavfi.signalstats.SATLOW=0
lavfi.signalstats.SATAVG=2.89848
lavfi.signalstats.SATHIGH=5
lavfi.signalstats.SATMAX=111
lavfi.signalstats.HUEMED=180
lavfi.signalstats.HUEAVG=191.65
lavfi.signalstats.YDIF=0.00793623
lavfi.signalstats.UDIF=0.0036309
lavfi.signalstats.VDIF=0.00755678
lavfi.signalstats.YBITDEPTH=8
lavfi.signalstats.UBITDEPTH=8
lavfi.signalstats.VBITDEPTH=8
frame:104  pts:13200   pts_time:2.2
lavfi.signalstats.YMIN=8
lavfi.signalstats.YLOW=16
lavfi.signalstats.YAVG=22.8278
lavfi.signalstats.YHIGH=29
lavfi.signalstats.YMAX=239
lavfi.signalstats.UMIN=35
lavfi.signalstats.ULOW=127
lavfi.signalstats.UAVG=128.328
lavfi.signalstats.UHIGH=129
lavfi.signalstats.UMAX=212
lavfi.signalstats.VMIN=49
lavfi.signalstats.VLOW=128
lavfi.signalstats.VAVG=130.193
lavfi.signalstats.VHIGH=133
lavfi.signalstats.VMAX=239
lavfi.signalstats.SATMIN=0
lavfi.signalstats.SATLOW=0
lavfi.signalstats.SATAVG=2.89677
lavfi.signalstats.SATHIGH=5
lavfi.signalstats.SATMAX=111
lavfi.signalstats.HUEMED=180
lavfi.signalstats.HUEAVG=191.598
lavfi.signalstats.YDIF=0.00589821
lavfi.signalstats.UDIF=0.0033252
lavfi.signalstats.VDIF=0.00686493
lavfi.signalstats.YBITDEPTH=8
lavfi.signalstats.UBITDEPTH=8
lavfi.signalstats.VBITDEPTH=8
frame:105  pts:13300   pts_time:2.216667
lavfi.signalstats.YMIN=8
lavfi.signalstats.YLOW=16
lavfi.signalstats.YAVG=22.8262
lavfi.signalstats.YHIGH=29
lavfi.signalstats.YMAX=239
lavfi.signalstats.UMIN=35
lavfi.signalstats.ULOW=127
lavfi.signalstats.UAVG=128.328
lavfi.signalstats.UHIGH=129
lavfi.signalstats.UMAX=212
lavfi.signalstats.VMIN=49
lavfi.signalstats.VLOW=128
lavfi.signalstats.VAVG=130.195
lavfi.signalstats.VHIGH=133
lavfi.signalstats.VMAX=239
lavfi.signalstats.SATMIN=0
lavfi.signalstats.SATLOW=0
lavfi.signalstats.SATAVG=2.89737
lavfi.signalstats.SATHIGH=5
lavfi.signalstats.SATMAX=111
lavfi.signalstats.HUEMED=180
lavfi.signalstats.HUEAVG=191.609
lavfi.signalstats.YDIF=0.00506825
lavfi.signalstats.UDIF=0.0024939
lavfi.signalstats.VDIF=0.00489126
lavfi.signalstats.YBITDEPTH=8
lavfi.signalstats.UBITDEPTH=8
lavfi.signalstats.VBITDEPTH=8
frame:106  pts:13400   pts_time:2.233333
lavfi.signalstats.YMIN=8
lavfi.signalstats.YLOW=16
lavfi.signalstats.YAVG=22.8281
lavfi.signalstats.YHIGH=29
lavfi.signalstats.YMAX=239
lavfi.signalstats.UMIN=35
lavfi.signalstats.ULOW=127
lavfi.signalstats.UAVG=128.328
lavfi.signalstats.UHIGH=129
lavfi.signalstats.UMAX=212
lavfi.signalstats.VMIN=49
lavfi.signalstats.VLOW=128
lavfi.signalstats.VAVG=130.193
lavfi.signalstats.VHIGH=133
lavfi.signalstats.VMAX=239
lavfi.signalstats.SATMIN=0
lavfi.signalstats.SATLOW=0
lavfi.signalstats.SATAVG=2.89622
lavfi.signalstats.SATHIGH=5
lavfi.signalstats.SATMAX=111
lavfi.signalstats.HUEMED=180
lavfi.signalstats.HUEAVG=191.624
lavfi.signalstats.YDIF=0.0043898
lavfi.signalstats.UDIF=0.00207557
lavfi.signalstats.VDIF=0.00461237
lavfi.signalstats.YBITDEPTH=8
lavfi.signalstats.UBITDEPTH=8
lavfi.signalstats.VBITDEPTH=8
